<?xml version="1.0" encoding="UTF-8" standalone="no" ?>
<!DOCTYPE svg PUBLIC "-//W3C//DTD SVG 1.1//EN" "http://www.w3.org/Graphics/SVG/1.1/DTD/svg11.dtd">
<svg xmlns="http://www.w3.org/2000/svg" xmlns:xlink="http://www.w3.org/1999/xlink" version="1.1" width="1080" height="1080" viewBox="0 0 1080 1080" xml:space="preserve">
<desc>Created with Fabric.js 5.2.4</desc>
<defs>
</defs>
<g transform="matrix(1 0 0 1 540 540)" id="a2486e02-7f89-4f7a-ad91-4d418d73f097"  >
<rect style="stroke: none; stroke-width: 1; stroke-dasharray: none; stroke-linecap: butt; stroke-dashoffset: 0; stroke-linejoin: miter; stroke-miterlimit: 4; fill: rgb(255,255,255); fill-rule: nonzero; opacity: 1; visibility: hidden;" vector-effect="non-scaling-stroke"  x="-540" y="-540" rx="0" ry="0" width="1080" height="1080" />
</g>
<g transform="matrix(1 0 0 1 540 540)" id="db935579-ad4f-44f7-87f1-4c24b8be5481"  >
</g>
<g transform="matrix(3.99 0 0 3.99 540 540)"  >
<g style="" vector-effect="non-scaling-stroke"   >
		<g transform="matrix(1.33 0 0 1.33 0 0)" clip-path="url(#CLIPPATH_3)"  >
<clipPath id="CLIPPATH_3" >
	<path transform="matrix(1 0 0 1 0 0) translate(-144.43, -195.87)" id="6694159" clip-path="url(#undefined)" d="M 144.433594 96.972656 C 89.8125 96.972656 45.535156 141.25 45.535156 195.867188 C 45.535156 250.484375 89.8125 294.761719 144.433594 294.761719 C 199.050781 294.761719 243.328125 250.484375 243.328125 195.867188 C 243.328125 141.25 199.050781 96.972656 144.433594 96.972656 Z M 144.433594 96.972656" stroke-linecap="round" />
</clipPath>
<path style="stroke: none; stroke-width: 1; stroke-dasharray: none; stroke-linecap: butt; stroke-dashoffset: 0; stroke-linejoin: miter; stroke-miterlimit: 4; fill: rgb(83,89,49); fill-rule: nonzero; opacity: 1;" vector-effect="non-scaling-stroke"  transform=" translate(-144.43, -195.87)" d="M 45.535156 96.972656 L 243.328125 96.972656 L 243.328125 294.761719 L 45.535156 294.761719 Z M 45.535156 96.972656" stroke-linecap="round" />
</g>
		<g transform="matrix(1.33 0 0 1.33 41.61 23.62)" clip-path="url(#CLIPPATH_4)"  >
<clipPath id="CLIPPATH_4" >
	<path transform="matrix(1 0 0 1 4.17 5.32) translate(-179.81, -218.9)" id="8" clip-path="url(#undefined)" d="M 234.605469 184.363281 L 134.734375 265.414062 L 125.007812 253.429688 L 224.878906 172.378906 Z M 234.605469 184.363281" stroke-linecap="round" />
</clipPath>
<path style="stroke: none; stroke-width: 1; stroke-dasharray: none; stroke-linecap: butt; stroke-dashoffset: 0; stroke-linejoin: miter; stroke-miterlimit: 4; fill: rgb(255,255,255); fill-rule: nonzero; opacity: 1;" vector-effect="non-scaling-stroke"  transform=" translate(-175.64, -213.58)" d="M 226.042969 174.078125 C 221.234375 183.972656 215.175781 193.28125 208.167969 201.808594 L 205.5 204.972656 L 202.742188 208.058594 L 199.898438 211.066406 L 196.976562 214 C 193.023438 217.855469 188.855469 221.492188 184.515625 224.90625 C 180.160156 228.304688 175.636719 231.480469 170.949219 234.402344 L 167.402344 236.535156 L 163.796875 238.578125 L 160.144531 240.523438 L 156.433594 242.359375 C 146.480469 247.121094 135.996094 250.78125 125.230469 253.082031 C 135.863281 250.25 146.179688 246.34375 155.984375 241.4375 L 159.636719 239.550781 L 163.242188 237.574219 L 166.792969 235.511719 L 170.289062 233.351562 C 174.917969 230.421875 179.402344 227.265625 183.707031 223.878906 C 188.027344 220.507812 192.164062 216.90625 196.117188 213.113281 L 199.050781 210.234375 L 201.902344 207.277344 L 204.683594 204.25 L 207.390625 201.15625 C 214.496094 192.804688 220.753906 183.722656 226.042969 174.078125 Z M 226.042969 174.078125" stroke-linecap="round" />
</g>
		<g transform="matrix(1.33 0 0 1.33 -15.12 -1.11)"  >
<path style="stroke: none; stroke-width: 1; stroke-dasharray: none; stroke-linecap: butt; stroke-dashoffset: 0; stroke-linejoin: miter; stroke-miterlimit: 4; fill: rgb(255,255,255); fill-rule: nonzero; opacity: 1;" vector-effect="non-scaling-stroke"  transform=" translate(-78.84, 109.05)" d="M 57.671875 -52.859375 C 58.003906 -50.328125 57.578125 -49.019531 56.390625 -48.9375 C 55.210938 -48.851562 54.203125 -50.664062 53.359375 -54.375 C 53.023438 -55.894531 52.6875 -57.75 52.34375 -59.9375 C 52.007812 -62.132812 51.929688 -64.582031 52.109375 -67.28125 C 52.273438 -69.132812 52.398438 -70.734375 52.484375 -72.078125 C 52.566406 -73.429688 52.691406 -74.191406 52.859375 -74.359375 C 53.191406 -75.035156 52.851562 -75.457031 51.84375 -75.625 C 50.832031 -75.789062 49.398438 -75.707031 47.546875 -75.375 C 46.023438 -75.207031 44.210938 -75.035156 42.109375 -74.859375 C 40.003906 -74.691406 37.347656 -74.523438 34.140625 -74.359375 C 31.785156 -74.359375 30.144531 -74.484375 29.21875 -74.734375 C 28.289062 -74.992188 27.65625 -75.710938 27.3125 -76.890625 C 26.632812 -78.578125 27.140625 -80.21875 28.828125 -81.8125 C 30.515625 -83.414062 32.492188 -84.847656 34.765625 -86.109375 C 37.046875 -87.378906 38.691406 -88.269531 39.703125 -88.78125 C 42.742188 -90.125 45.820312 -91.257812 48.9375 -92.1875 C 52.0625 -93.113281 55.304688 -94.082031 58.671875 -95.09375 C 59.347656 -95.257812 60.613281 -97.285156 62.46875 -101.171875 C 64.320312 -105.210938 66.300781 -109.171875 68.40625 -113.046875 C 70.519531 -116.929688 72.585938 -120.726562 74.609375 -124.4375 C 75.960938 -127.300781 77.015625 -129.238281 77.765625 -130.25 C 78.523438 -131.257812 79.160156 -131.851562 79.671875 -132.03125 C 80.679688 -132.53125 81.523438 -132.441406 82.203125 -131.765625 C 82.535156 -131.429688 82.703125 -130.96875 82.703125 -130.375 C 82.703125 -129.789062 82.363281 -128.570312 81.6875 -126.71875 C 80.007812 -121.988281 77.945312 -117.429688 75.5 -113.046875 C 73.050781 -108.671875 70.898438 -104.117188 69.046875 -99.390625 L 68.03125 -96.609375 C 75.457031 -97.960938 81.738281 -98.804688 86.875 -99.140625 C 92.019531 -99.484375 96.953125 -99.234375 101.671875 -98.390625 C 102.679688 -98.222656 103.691406 -98.554688 104.703125 -99.390625 C 105.722656 -100.234375 107.070312 -101.25 108.75 -102.4375 C 113.300781 -105.632812 117.769531 -109.253906 122.15625 -113.296875 C 126.539062 -117.347656 130.082031 -121.945312 132.78125 -127.09375 C 135.476562 -132.238281 136.40625 -137.929688 135.5625 -144.171875 C 134.71875 -150.742188 132.269531 -155.710938 128.21875 -159.078125 C 124.175781 -162.453125 119.375 -164.769531 113.8125 -166.03125 C 108.25 -167.300781 102.6875 -167.851562 97.125 -167.6875 C 87.34375 -167.519531 77.519531 -166.046875 67.65625 -163.265625 C 57.789062 -160.484375 48.472656 -156.394531 39.703125 -151 C 37.179688 -149.3125 34.316406 -147.160156 31.109375 -144.546875 C 27.898438 -141.929688 25.15625 -139.019531 22.875 -135.8125 C 20.601562 -132.613281 19.382812 -129.242188 19.21875 -125.703125 C 19.21875 -125.367188 19.46875 -124.609375 19.96875 -123.421875 C 20.476562 -122.242188 21.070312 -121.65625 21.75 -121.65625 C 23.269531 -121.65625 23.898438 -121.273438 23.640625 -120.515625 C 23.390625 -119.753906 22.507812 -119.457031 21 -119.625 C 19.476562 -119.96875 18.546875 -120.851562 18.203125 -122.28125 C 17.867188 -123.71875 17.703125 -124.859375 17.703125 -125.703125 C 17.703125 -126.878906 18.164062 -128.734375 19.09375 -131.265625 C 20.019531 -133.796875 21.070312 -135.820312 22.25 -137.34375 C 24.78125 -141.21875 29.207031 -145.347656 35.53125 -149.734375 C 41.851562 -154.117188 48.640625 -157.828125 55.890625 -160.859375 C 61.796875 -163.222656 67.953125 -165.078125 74.359375 -166.421875 C 80.765625 -167.773438 86.75 -168.617188 92.3125 -168.953125 C 96.863281 -169.285156 101.671875 -169.238281 106.734375 -168.8125 C 111.796875 -168.394531 116.601562 -167.425781 121.15625 -165.90625 C 125.707031 -164.394531 129.625 -161.992188 132.90625 -158.703125 C 136.195312 -155.421875 138.347656 -151 139.359375 -145.4375 C 140.535156 -139.695312 140.023438 -134.253906 137.828125 -129.109375 C 135.640625 -123.972656 132.566406 -119.335938 128.609375 -115.203125 C 124.648438 -111.078125 120.476562 -107.492188 116.09375 -104.453125 C 111.539062 -101.421875 108.710938 -99.398438 107.609375 -98.390625 C 106.515625 -97.378906 106.304688 -96.875 106.984375 -96.875 C 107.828125 -96.875 108.921875 -96.660156 110.265625 -96.234375 C 111.617188 -95.816406 112.460938 -95.1875 112.796875 -94.34375 C 113.140625 -93.832031 113.351562 -93.195312 113.4375 -92.4375 C 113.519531 -91.6875 112.632812 -91.3125 110.78125 -91.3125 C 110.269531 -91.3125 109.929688 -91.476562 109.765625 -91.8125 C 109.597656 -92.144531 109.175781 -92.648438 108.5 -93.328125 C 106.644531 -95.015625 104.875 -95.6875 103.1875 -95.34375 C 102.007812 -95.175781 100.578125 -94.585938 98.890625 -93.578125 C 95.691406 -91.890625 91.859375 -90.035156 87.390625 -88.015625 C 82.921875 -85.992188 78.492188 -84.179688 74.109375 -82.578125 C 69.722656 -80.972656 65.757812 -79.75 62.21875 -78.90625 C 61.207031 -78.40625 59.941406 -75.203125 58.421875 -69.296875 C 57.921875 -67.273438 57.625 -64.660156 57.53125 -61.453125 C 57.445312 -58.253906 57.492188 -55.390625 57.671875 -52.859375 Z M 62.21875 -81.4375 C 62.382812 -81.269531 63.691406 -81.476562 66.140625 -82.0625 C 68.585938 -82.65625 70.398438 -83.125 71.578125 -83.46875 C 74.609375 -84.644531 78.316406 -86.203125 82.703125 -88.140625 C 87.085938 -90.078125 90.960938 -91.890625 94.328125 -93.578125 C 97.703125 -95.265625 99.390625 -96.273438 99.390625 -96.609375 C 98.210938 -96.953125 96.863281 -97.164062 95.34375 -97.25 C 93.832031 -97.332031 91.644531 -97.289062 88.78125 -97.125 C 85.070312 -96.957031 81.445312 -96.578125 77.90625 -95.984375 C 74.363281 -95.390625 70.738281 -94.84375 67.03125 -94.34375 L 64.5 -88.015625 Z M 40.71875 -76.640625 C 45.78125 -76.972656 49.28125 -77.429688 51.21875 -78.015625 C 53.15625 -78.609375 54.207031 -79.410156 54.375 -80.421875 C 54.375 -81.441406 55.050781 -83.46875 56.40625 -86.5 L 58.671875 -92.5625 C 59.015625 -93.238281 58.765625 -93.453125 57.921875 -93.203125 C 57.078125 -92.953125 56.488281 -92.828125 56.15625 -92.828125 C 54.96875 -92.648438 52.941406 -92.054688 50.078125 -91.046875 C 47.210938 -90.035156 44.175781 -88.769531 40.96875 -87.25 C 37.769531 -85.738281 35.03125 -84.097656 32.75 -82.328125 C 30.476562 -80.554688 29.34375 -78.910156 29.34375 -77.390625 C 29.34375 -76.046875 33.132812 -75.796875 40.71875 -76.640625 Z M 40.71875 -76.640625" stroke-linecap="round" />
</g>
</g>
</g>
</svg>