<?xml version="1.0" encoding="UTF-8" standalone="no" ?>
<!DOCTYPE svg PUBLIC "-//W3C//DTD SVG 1.1//EN" "http://www.w3.org/Graphics/SVG/1.1/DTD/svg11.dtd">
<svg xmlns="http://www.w3.org/2000/svg" xmlns:xlink="http://www.w3.org/1999/xlink" version="1.1" width="1080" height="400" viewBox="0 0 1080 400" xml:space="preserve">
<desc>Created with Fabric.js 5.2.4</desc>
<defs>
</defs>
<g transform="matrix(1 0 0 1 540 200)" id="d06cddaa-6bf3-45c7-9a81-b2569ec8309e"  >
<rect style="stroke: none; stroke-width: 1; stroke-dasharray: none; stroke-linecap: butt; stroke-dashoffset: 0; stroke-linejoin: miter; stroke-miterlimit: 4; fill: rgb(255,255,255); fill-rule: nonzero; opacity: 1; visibility: hidden;" vector-effect="non-scaling-stroke"  x="-540" y="-200" rx="0" ry="0" width="1080" height="400" />
</g>
<g transform="matrix(Infinity NaN NaN Infinity 0 0)" id="0f6c0152-4a70-4b47-a123-082ea678beea"  >
</g>
<g transform="matrix(5.74 0 0 5.74 540 200)"  >
<g style="" vector-effect="non-scaling-stroke"   >
		<g transform="matrix(1.33 0 0 1.33 -82.1 -13.81)"  >
<path style="stroke: none; stroke-width: 1; stroke-dasharray: none; stroke-linecap: butt; stroke-dashoffset: 0; stroke-linejoin: miter; stroke-miterlimit: 4; fill: rgb(0,0,0); fill-rule: nonzero; opacity: 1;" vector-effect="non-scaling-stroke"  transform=" translate(-6, 6.81)" d="M 3.671875 -1.71875 C 3.671875 -1.351562 3.738281 -1.003906 3.875 -0.671875 C 4.019531 -0.347656 4.273438 -0.125 4.640625 0 L 0.96875 0 C 1.375 -0.125 1.640625 -0.359375 1.765625 -0.703125 C 1.898438 -1.046875 1.96875 -1.40625 1.96875 -1.78125 L 1.96875 -11.890625 C 1.96875 -12.265625 1.898438 -12.617188 1.765625 -12.953125 C 1.628906 -13.285156 1.363281 -13.507812 0.96875 -13.625 L 5.96875 -13.625 C 6.65625 -13.625 7.304688 -13.546875 7.921875 -13.390625 C 8.535156 -13.242188 9.070312 -13.007812 9.53125 -12.6875 C 10 -12.363281 10.363281 -11.9375 10.625 -11.40625 C 10.894531 -10.882812 11.03125 -10.242188 11.03125 -9.484375 C 11.03125 -8.753906 10.878906 -8.125 10.578125 -7.59375 C 10.273438 -7.070312 9.867188 -6.644531 9.359375 -6.3125 C 8.859375 -5.976562 8.296875 -5.734375 7.671875 -5.578125 C 7.046875 -5.421875 6.40625 -5.34375 5.75 -5.34375 L 3.671875 -5.34375 Z M 3.671875 -5.5625 L 5.5 -5.5625 C 6.707031 -5.5625 7.644531 -5.914062 8.3125 -6.625 C 8.976562 -7.34375 9.3125 -8.296875 9.3125 -9.484375 C 9.3125 -10.703125 8.984375 -11.65625 8.328125 -12.34375 C 7.671875 -13.039062 6.726562 -13.390625 5.5 -13.390625 L 3.671875 -13.390625 Z M 3.671875 -5.5625" stroke-linecap="round" />
</g>
		<g transform="matrix(1.33 0 0 1.33 -64.41 -13.92)"  >
<path style="stroke: none; stroke-width: 1; stroke-dasharray: none; stroke-linecap: butt; stroke-dashoffset: 0; stroke-linejoin: miter; stroke-miterlimit: 4; fill: rgb(0,0,0); fill-rule: nonzero; opacity: 1;" vector-effect="non-scaling-stroke"  transform=" translate(-7.26, 6.89)" d="M 2.890625 -1.28125 C 2.890625 -0.925781 2.988281 -0.644531 3.1875 -0.4375 C 3.394531 -0.238281 3.65625 -0.09375 3.96875 0 L 1 0 C 1.332031 -0.113281 1.644531 -0.316406 1.9375 -0.609375 C 2.238281 -0.910156 2.453125 -1.234375 2.578125 -1.578125 L 7.3125 -13.78125 L 12.0625 -1.578125 C 12.207031 -1.242188 12.394531 -0.925781 12.625 -0.625 C 12.863281 -0.320312 13.160156 -0.113281 13.515625 0 L 9.5 0 C 9.75 -0.0703125 9.953125 -0.234375 10.109375 -0.484375 C 10.265625 -0.734375 10.34375 -0.96875 10.34375 -1.1875 C 10.34375 -1.34375 10.273438 -1.601562 10.140625 -1.96875 C 10.015625 -2.34375 9.867188 -2.742188 9.703125 -3.171875 C 9.535156 -3.597656 9.375 -4.003906 9.21875 -4.390625 C 9.0625 -4.773438 8.945312 -5.0625 8.875 -5.25 L 4.28125 -5.25 C 4.207031 -5.0625 4.09375 -4.785156 3.9375 -4.421875 C 3.789062 -4.066406 3.640625 -3.691406 3.484375 -3.296875 C 3.328125 -2.898438 3.1875 -2.515625 3.0625 -2.140625 C 2.945312 -1.765625 2.890625 -1.476562 2.890625 -1.28125 Z M 4.34375 -5.46875 L 8.75 -5.46875 L 6.5625 -11.203125 Z M 4.34375 -5.46875" stroke-linecap="round" />
</g>
		<g transform="matrix(1.33 0 0 1.33 -45.88 -13.81)"  >
<path style="stroke: none; stroke-width: 1; stroke-dasharray: none; stroke-linecap: butt; stroke-dashoffset: 0; stroke-linejoin: miter; stroke-miterlimit: 4; fill: rgb(0,0,0); fill-rule: nonzero; opacity: 1;" vector-effect="non-scaling-stroke"  transform=" translate(-6.64, 6.81)" d="M 7.484375 -1.78125 C 7.484375 -1.40625 7.546875 -1.046875 7.671875 -0.703125 C 7.796875 -0.359375 8.066406 -0.125 8.484375 0 L 4.78125 0 C 5.207031 -0.125 5.476562 -0.351562 5.59375 -0.6875 C 5.71875 -1.019531 5.78125 -1.382812 5.78125 -1.78125 L 5.8125 -13.3125 L 4.5 -13.3125 C 3.757812 -13.3125 3.078125 -13.113281 2.453125 -12.71875 C 1.835938 -12.332031 1.351562 -11.816406 1 -11.171875 L 1.46875 -13.625 L 11.78125 -13.625 L 12.28125 -11.203125 C 11.9375 -11.816406 11.445312 -12.320312 10.8125 -12.71875 C 10.1875 -13.113281 9.507812 -13.3125 8.78125 -13.3125 L 7.484375 -13.3125 Z M 7.484375 -1.78125" stroke-linecap="round" />
</g>
		<g transform="matrix(1.33 0 0 1.33 -29.58 -13.89)"  >
<path style="stroke: none; stroke-width: 1; stroke-dasharray: none; stroke-linecap: butt; stroke-dashoffset: 0; stroke-linejoin: miter; stroke-miterlimit: 4; fill: rgb(0,0,0); fill-rule: nonzero; opacity: 1;" vector-effect="non-scaling-stroke"  transform=" translate(-5.61, 6.87)" d="M 10.28125 -3.390625 C 10.28125 -2.765625 10.144531 -2.222656 9.875 -1.765625 C 9.613281 -1.304688 9.269531 -0.929688 8.84375 -0.640625 C 8.414062 -0.359375 7.929688 -0.148438 7.390625 -0.015625 C 6.859375 0.109375 6.3125 0.171875 5.75 0.171875 C 5.394531 0.171875 5.050781 0.125 4.71875 0.03125 C 4.382812 -0.0625 4.066406 -0.160156 3.765625 -0.265625 C 3.460938 -0.367188 3.160156 -0.460938 2.859375 -0.546875 C 2.566406 -0.640625 2.269531 -0.6875 1.96875 -0.6875 C 1.769531 -0.6875 1.578125 -0.628906 1.390625 -0.515625 C 1.203125 -0.410156 1.050781 -0.273438 0.9375 -0.109375 L 0.9375 -4.3125 C 1.101562 -3.820312 1.335938 -3.328125 1.640625 -2.828125 C 1.953125 -2.328125 2.316406 -1.878906 2.734375 -1.484375 C 3.148438 -1.085938 3.613281 -0.757812 4.125 -0.5 C 4.632812 -0.238281 5.164062 -0.109375 5.71875 -0.109375 C 6.113281 -0.109375 6.515625 -0.148438 6.921875 -0.234375 C 7.328125 -0.316406 7.691406 -0.453125 8.015625 -0.640625 C 8.335938 -0.835938 8.601562 -1.097656 8.8125 -1.421875 C 9.03125 -1.753906 9.140625 -2.148438 9.140625 -2.609375 C 9.140625 -3.179688 8.945312 -3.65625 8.5625 -4.03125 C 8.175781 -4.414062 7.6875 -4.765625 7.09375 -5.078125 C 6.507812 -5.398438 5.875 -5.703125 5.1875 -5.984375 C 4.507812 -6.273438 3.878906 -6.609375 3.296875 -6.984375 C 2.710938 -7.367188 2.222656 -7.820312 1.828125 -8.34375 C 1.441406 -8.875 1.25 -9.53125 1.25 -10.3125 C 1.25 -10.90625 1.363281 -11.421875 1.59375 -11.859375 C 1.832031 -12.304688 2.140625 -12.679688 2.515625 -12.984375 C 2.890625 -13.296875 3.328125 -13.523438 3.828125 -13.671875 C 4.335938 -13.828125 4.867188 -13.90625 5.421875 -13.90625 C 5.785156 -13.90625 6.132812 -13.851562 6.46875 -13.75 C 6.8125 -13.644531 7.125 -13.53125 7.40625 -13.40625 C 7.695312 -13.289062 7.960938 -13.179688 8.203125 -13.078125 C 8.441406 -12.972656 8.644531 -12.921875 8.8125 -12.921875 C 9.070312 -12.921875 9.273438 -13 9.421875 -13.15625 C 9.566406 -13.3125 9.675781 -13.492188 9.75 -13.703125 C 9.738281 -13.128906 9.703125 -12.554688 9.640625 -11.984375 C 9.585938 -11.421875 9.5625 -10.851562 9.5625 -10.28125 C 9.4375 -10.726562 9.234375 -11.15625 8.953125 -11.5625 C 8.671875 -11.96875 8.34375 -12.328125 7.96875 -12.640625 C 7.601562 -12.960938 7.195312 -13.21875 6.75 -13.40625 C 6.3125 -13.601562 5.847656 -13.703125 5.359375 -13.703125 C 4.992188 -13.703125 4.628906 -13.648438 4.265625 -13.546875 C 3.898438 -13.441406 3.578125 -13.289062 3.296875 -13.09375 C 3.023438 -12.90625 2.800781 -12.65625 2.625 -12.34375 C 2.445312 -12.039062 2.359375 -11.6875 2.359375 -11.28125 C 2.359375 -10.6875 2.550781 -10.191406 2.9375 -9.796875 C 3.332031 -9.398438 3.828125 -9.035156 4.421875 -8.703125 C 5.015625 -8.367188 5.648438 -8.050781 6.328125 -7.75 C 7.003906 -7.457031 7.640625 -7.113281 8.234375 -6.71875 C 8.828125 -6.332031 9.316406 -5.875 9.703125 -5.34375 C 10.085938 -4.820312 10.28125 -4.171875 10.28125 -3.390625 Z M 10.28125 -3.390625" stroke-linecap="round" />
</g>
		<g transform="matrix(1.33 0 0 1.33 -18.57 -13.81)"  >
<path style="stroke: none; stroke-width: 1; stroke-dasharray: none; stroke-linecap: butt; stroke-dashoffset: 0; stroke-linejoin: miter; stroke-miterlimit: 4; fill: rgb(0,0,0); fill-rule: nonzero; opacity: 1;" vector-effect="non-scaling-stroke"  transform=" translate(-2.8, 6.81)" d="M 3.671875 -1.78125 C 3.671875 -1.40625 3.734375 -1.046875 3.859375 -0.703125 C 3.992188 -0.359375 4.253906 -0.125 4.640625 0 L 0.96875 0 C 1.375 -0.125 1.640625 -0.351562 1.765625 -0.6875 C 1.898438 -1.019531 1.96875 -1.382812 1.96875 -1.78125 L 1.96875 -11.921875 C 1.96875 -12.296875 1.898438 -12.640625 1.765625 -12.953125 C 1.640625 -13.265625 1.375 -13.488281 0.96875 -13.625 L 4.640625 -13.625 C 4.253906 -13.488281 3.992188 -13.265625 3.859375 -12.953125 C 3.734375 -12.640625 3.671875 -12.296875 3.671875 -11.921875 Z M 3.671875 -1.78125" stroke-linecap="round" />
</g>
		<g transform="matrix(1.33 0 0 1.33 -7.09 -13.81)"  >
<path style="stroke: none; stroke-width: 1; stroke-dasharray: none; stroke-linecap: butt; stroke-dashoffset: 0; stroke-linejoin: miter; stroke-miterlimit: 4; fill: rgb(0,0,0); fill-rule: nonzero; opacity: 1;" vector-effect="non-scaling-stroke"  transform=" translate(-5.8, 6.81)" d="M 6.640625 -0.21875 C 7.566406 -0.21875 8.34375 -0.453125 8.96875 -0.921875 C 9.601562 -1.398438 10.15625 -2.019531 10.625 -2.78125 L 10 0 L 0.96875 0 C 1.375 -0.125 1.640625 -0.359375 1.765625 -0.703125 C 1.898438 -1.046875 1.96875 -1.40625 1.96875 -1.78125 L 1.96875 -11.921875 C 1.96875 -12.296875 1.898438 -12.640625 1.765625 -12.953125 C 1.640625 -13.265625 1.375 -13.488281 0.96875 -13.625 L 4.640625 -13.625 C 4.253906 -13.488281 3.992188 -13.265625 3.859375 -12.953125 C 3.734375 -12.640625 3.671875 -12.296875 3.671875 -11.921875 L 3.671875 -0.21875 Z M 6.640625 -0.21875" stroke-linecap="round" />
</g>
		<g transform="matrix(1.33 0 0 1.33 10.59 -13.81)"  >
<path style="stroke: none; stroke-width: 1; stroke-dasharray: none; stroke-linecap: butt; stroke-dashoffset: 0; stroke-linejoin: miter; stroke-miterlimit: 4; fill: rgb(0,0,0); fill-rule: nonzero; opacity: 1;" vector-effect="non-scaling-stroke"  transform=" translate(-7.46, 6.81)" d="M 13.953125 -13.625 C 13.503906 -13.46875 13.144531 -13.257812 12.875 -13 C 12.613281 -12.75 12.398438 -12.410156 12.234375 -11.984375 L 7.3125 0 L 2.328125 -11.84375 C 2.179688 -12.15625 2 -12.488281 1.78125 -12.84375 C 1.570312 -13.207031 1.300781 -13.46875 0.96875 -13.625 L 4.84375 -13.625 C 4.59375 -13.53125 4.398438 -13.363281 4.265625 -13.125 C 4.128906 -12.882812 4.0625 -12.632812 4.0625 -12.375 C 4.0625 -12.28125 4.148438 -11.988281 4.328125 -11.5 C 4.503906 -11.019531 4.722656 -10.445312 4.984375 -9.78125 C 5.253906 -9.113281 5.550781 -8.394531 5.875 -7.625 C 6.195312 -6.863281 6.507812 -6.132812 6.8125 -5.4375 C 7.125 -4.738281 7.394531 -4.117188 7.625 -3.578125 C 7.863281 -3.046875 8.019531 -2.6875 8.09375 -2.5 C 8.1875 -2.71875 8.347656 -3.097656 8.578125 -3.640625 C 8.804688 -4.191406 9.066406 -4.820312 9.359375 -5.53125 C 9.660156 -6.25 9.972656 -7 10.296875 -7.78125 C 10.617188 -8.5625 10.914062 -9.285156 11.1875 -9.953125 C 11.457031 -10.617188 11.679688 -11.1875 11.859375 -11.65625 C 12.035156 -12.132812 12.125 -12.421875 12.125 -12.515625 C 12.125 -12.785156 12.007812 -13.019531 11.78125 -13.21875 C 11.5625 -13.425781 11.320312 -13.5625 11.0625 -13.625 Z M 13.953125 -13.625" stroke-linecap="round" />
</g>
		<g transform="matrix(1.33 0 0 1.33 30.18 -13.92)"  >
<path style="stroke: none; stroke-width: 1; stroke-dasharray: none; stroke-linecap: butt; stroke-dashoffset: 0; stroke-linejoin: miter; stroke-miterlimit: 4; fill: rgb(0,0,0); fill-rule: nonzero; opacity: 1;" vector-effect="non-scaling-stroke"  transform=" translate(-7.26, 6.89)" d="M 2.890625 -1.28125 C 2.890625 -0.925781 2.988281 -0.644531 3.1875 -0.4375 C 3.394531 -0.238281 3.65625 -0.09375 3.96875 0 L 1 0 C 1.332031 -0.113281 1.644531 -0.316406 1.9375 -0.609375 C 2.238281 -0.910156 2.453125 -1.234375 2.578125 -1.578125 L 7.3125 -13.78125 L 12.0625 -1.578125 C 12.207031 -1.242188 12.394531 -0.925781 12.625 -0.625 C 12.863281 -0.320312 13.160156 -0.113281 13.515625 0 L 9.5 0 C 9.75 -0.0703125 9.953125 -0.234375 10.109375 -0.484375 C 10.265625 -0.734375 10.34375 -0.96875 10.34375 -1.1875 C 10.34375 -1.34375 10.273438 -1.601562 10.140625 -1.96875 C 10.015625 -2.34375 9.867188 -2.742188 9.703125 -3.171875 C 9.535156 -3.597656 9.375 -4.003906 9.21875 -4.390625 C 9.0625 -4.773438 8.945312 -5.0625 8.875 -5.25 L 4.28125 -5.25 C 4.207031 -5.0625 4.09375 -4.785156 3.9375 -4.421875 C 3.789062 -4.066406 3.640625 -3.691406 3.484375 -3.296875 C 3.328125 -2.898438 3.1875 -2.515625 3.0625 -2.140625 C 2.945312 -1.765625 2.890625 -1.476562 2.890625 -1.28125 Z M 4.34375 -5.46875 L 8.75 -5.46875 L 6.5625 -11.203125 Z M 4.34375 -5.46875" stroke-linecap="round" />
</g>
		<g transform="matrix(1.33 0 0 1.33 48.32 -13.81)"  >
<path style="stroke: none; stroke-width: 1; stroke-dasharray: none; stroke-linecap: butt; stroke-dashoffset: 0; stroke-linejoin: miter; stroke-miterlimit: 4; fill: rgb(0,0,0); fill-rule: nonzero; opacity: 1;" vector-effect="non-scaling-stroke"  transform=" translate(-6.35, 6.81)" d="M 3.671875 -1.71875 C 3.671875 -1.351562 3.742188 -1.003906 3.890625 -0.671875 C 4.035156 -0.347656 4.296875 -0.125 4.671875 0 L 1 0 C 1.382812 -0.125 1.640625 -0.359375 1.765625 -0.703125 C 1.898438 -1.046875 1.96875 -1.40625 1.96875 -1.78125 L 1.96875 -11.921875 C 1.96875 -12.296875 1.898438 -12.644531 1.765625 -12.96875 C 1.640625 -13.289062 1.382812 -13.507812 1 -13.625 L 5.71875 -13.625 C 6.394531 -13.625 7.050781 -13.546875 7.6875 -13.390625 C 8.320312 -13.242188 8.890625 -13.007812 9.390625 -12.6875 C 9.890625 -12.363281 10.289062 -11.9375 10.59375 -11.40625 C 10.90625 -10.882812 11.0625 -10.242188 11.0625 -9.484375 C 11.0625 -8.390625 10.734375 -7.5 10.078125 -6.8125 C 9.421875 -6.125 8.582031 -5.660156 7.5625 -5.421875 L 10.09375 -1.328125 C 10.289062 -1.035156 10.53125 -0.769531 10.8125 -0.53125 C 11.09375 -0.289062 11.390625 -0.113281 11.703125 0 L 9.125 0 L 5.8125 -5.359375 L 3.671875 -5.359375 Z M 3.671875 -5.5625 L 5.5625 -5.5625 C 6.726562 -5.5625 7.648438 -5.921875 8.328125 -6.640625 C 9.003906 -7.367188 9.34375 -8.316406 9.34375 -9.484375 C 9.34375 -10.703125 9.015625 -11.65625 8.359375 -12.34375 C 7.710938 -13.039062 6.78125 -13.390625 5.5625 -13.390625 L 3.671875 -13.390625 Z M 3.671875 -5.5625" stroke-linecap="round" />
</g>
		<g transform="matrix(1.33 0 0 1.33 65.65 -13.81)"  >
<path style="stroke: none; stroke-width: 1; stroke-dasharray: none; stroke-linecap: butt; stroke-dashoffset: 0; stroke-linejoin: miter; stroke-miterlimit: 4; fill: rgb(0,0,0); fill-rule: nonzero; opacity: 1;" vector-effect="non-scaling-stroke"  transform=" translate(-6.64, 6.81)" d="M 7.484375 -1.78125 C 7.484375 -1.40625 7.546875 -1.046875 7.671875 -0.703125 C 7.796875 -0.359375 8.066406 -0.125 8.484375 0 L 4.78125 0 C 5.207031 -0.125 5.476562 -0.351562 5.59375 -0.6875 C 5.71875 -1.019531 5.78125 -1.382812 5.78125 -1.78125 L 5.8125 -13.3125 L 4.5 -13.3125 C 3.757812 -13.3125 3.078125 -13.113281 2.453125 -12.71875 C 1.835938 -12.332031 1.351562 -11.816406 1 -11.171875 L 1.46875 -13.625 L 11.78125 -13.625 L 12.28125 -11.203125 C 11.9375 -11.816406 11.445312 -12.320312 10.8125 -12.71875 C 10.1875 -13.113281 9.507812 -13.3125 8.78125 -13.3125 L 7.484375 -13.3125 Z M 7.484375 -1.78125" stroke-linecap="round" />
</g>
		<g transform="matrix(1.33 0 0 1.33 82.29 -13.81)"  >
<path style="stroke: none; stroke-width: 1; stroke-dasharray: none; stroke-linecap: butt; stroke-dashoffset: 0; stroke-linejoin: miter; stroke-miterlimit: 4; fill: rgb(0,0,0); fill-rule: nonzero; opacity: 1;" vector-effect="non-scaling-stroke"  transform=" translate(-5.86, 6.81)" d="M 6.3125 -0.21875 C 7.175781 -0.21875 8.023438 -0.421875 8.859375 -0.828125 C 9.703125 -1.242188 10.332031 -1.847656 10.75 -2.640625 L 10.125 0 L 0.96875 0 C 1.375 -0.125 1.640625 -0.359375 1.765625 -0.703125 C 1.898438 -1.046875 1.96875 -1.40625 1.96875 -1.78125 L 1.96875 -11.921875 C 1.96875 -12.296875 1.898438 -12.644531 1.765625 -12.96875 C 1.640625 -13.289062 1.375 -13.507812 0.96875 -13.625 L 9.921875 -13.625 L 10.484375 -11 C 10.054688 -11.820312 9.484375 -12.425781 8.765625 -12.8125 C 8.054688 -13.195312 7.25 -13.390625 6.34375 -13.390625 L 3.671875 -13.390625 L 3.671875 -7.03125 L 5.390625 -7.03125 C 5.890625 -7.03125 6.351562 -7.132812 6.78125 -7.34375 C 7.207031 -7.5625 7.492188 -7.941406 7.640625 -8.484375 L 7.640625 -5.421875 C 7.492188 -5.953125 7.207031 -6.316406 6.78125 -6.515625 C 6.351562 -6.710938 5.890625 -6.8125 5.390625 -6.8125 L 3.671875 -6.8125 L 3.671875 -0.21875 Z M 6.3125 -0.21875" stroke-linecap="round" />
</g>
		<g transform="matrix(1.33 0 0 1.33 -53.33 9.02)"  >
<path style="stroke: none; stroke-width: 1; stroke-dasharray: none; stroke-linecap: butt; stroke-dashoffset: 0; stroke-linejoin: miter; stroke-miterlimit: 4; fill: rgb(0,0,0); fill-rule: nonzero; opacity: 1;" vector-effect="non-scaling-stroke"  transform=" translate(-6.52, 6.02)" d="M -0.640625 -3.640625 C -0.785156 -3.640625 -0.9375 -3.664062 -1.09375 -3.71875 C -1.25 -3.78125 -1.367188 -3.882812 -1.453125 -4.03125 C -1.484375 -4.113281 -1.5 -4.285156 -1.5 -4.546875 C -1.5 -4.804688 -1.304688 -5.226562 -0.921875 -5.8125 C -0.535156 -6.40625 0.210938 -7.226562 1.328125 -8.28125 C 1.503906 -8.457031 1.675781 -8.441406 1.84375 -8.234375 C 1.925781 -8.179688 1.96875 -8.097656 1.96875 -7.984375 C 1.96875 -7.867188 1.925781 -7.78125 1.84375 -7.71875 C 0.757812 -6.664062 0.046875 -5.878906 -0.296875 -5.359375 C -0.640625 -4.847656 -0.796875 -4.535156 -0.765625 -4.421875 C -0.710938 -4.359375 -0.484375 -4.375 -0.078125 -4.46875 C 0.0546875 -4.519531 0.445312 -4.695312 1.09375 -5 C 1.738281 -5.300781 2.847656 -5.925781 4.421875 -6.875 C 4.617188 -6.957031 4.789062 -6.925781 4.9375 -6.78125 C 5.050781 -6.664062 5.050781 -6.492188 4.9375 -6.265625 C 4.394531 -5.660156 4.050781 -5.210938 3.90625 -4.921875 C 3.757812 -4.640625 3.703125 -4.472656 3.734375 -4.421875 L 3.859375 -4.421875 C 3.921875 -4.421875 4 -4.421875 4.09375 -4.421875 C 4.195312 -4.421875 4.304688 -4.4375 4.421875 -4.46875 C 4.679688 -4.519531 5.097656 -4.695312 5.671875 -5 C 6.242188 -5.300781 6.882812 -5.660156 7.59375 -6.078125 C 8.3125 -6.492188 8.992188 -6.894531 9.640625 -7.28125 C 10.285156 -7.664062 10.789062 -7.972656 11.15625 -8.203125 C 11.300781 -8.316406 11.445312 -8.300781 11.59375 -8.15625 C 11.726562 -8.070312 11.769531 -7.925781 11.71875 -7.71875 C 11.71875 -7.71875 11.695312 -7.585938 11.65625 -7.328125 C 11.613281 -7.078125 11.675781 -6.867188 11.84375 -6.703125 C 12.132812 -6.359375 12.863281 -6.34375 14.03125 -6.65625 C 14.289062 -6.707031 14.445312 -6.617188 14.5 -6.390625 C 14.613281 -6.140625 14.53125 -5.984375 14.25 -5.921875 C 12.789062 -5.546875 11.800781 -5.632812 11.28125 -6.1875 C 11.144531 -6.320312 11.046875 -6.472656 10.984375 -6.640625 C 10.929688 -6.816406 10.90625 -6.976562 10.90625 -7.125 C 10.5 -6.894531 10.003906 -6.597656 9.421875 -6.234375 C 8.835938 -5.878906 8.222656 -5.523438 7.578125 -5.171875 C 6.929688 -4.816406 6.34375 -4.5 5.8125 -4.21875 C 5.28125 -3.945312 4.875 -3.785156 4.59375 -3.734375 C 4.445312 -3.703125 4.195312 -3.671875 3.84375 -3.640625 C 3.488281 -3.617188 3.222656 -3.75 3.046875 -4.03125 C 2.992188 -4.144531 2.957031 -4.296875 2.9375 -4.484375 C 2.925781 -4.671875 3.019531 -4.9375 3.21875 -5.28125 C 1.613281 -4.363281 0.566406 -3.847656 0.078125 -3.734375 C -0.0859375 -3.671875 -0.328125 -3.640625 -0.640625 -3.640625 Z M -0.640625 -3.640625" stroke-linecap="round" />
</g>
		<g transform="matrix(1.33 0 0 1.33 -36.05 9.02)"  >
<path style="stroke: none; stroke-width: 1; stroke-dasharray: none; stroke-linecap: butt; stroke-dashoffset: 0; stroke-linejoin: miter; stroke-miterlimit: 4; fill: rgb(0,0,0); fill-rule: nonzero; opacity: 1;" vector-effect="non-scaling-stroke"  transform=" translate(-5.24, 6.02)" d="M 1.03125 -3.734375 C 0.457031 -3.785156 -0.0195312 -3.890625 -0.40625 -4.046875 C -0.789062 -4.210938 -1.054688 -4.4375 -1.203125 -4.71875 C -1.234375 -4.863281 -1.25 -5.035156 -1.25 -5.234375 C -1.25 -5.429688 -1.132812 -5.675781 -0.90625 -5.96875 C -0.695312 -6.226562 -0.414062 -6.472656 -0.0625 -6.703125 C 0.289062 -6.929688 0.679688 -7.144531 1.109375 -7.34375 L 1.203125 -7.375 C 1.773438 -7.632812 2.351562 -7.84375 2.9375 -8 C 3.519531 -8.15625 3.972656 -8.25 4.296875 -8.28125 C 4.460938 -8.3125 4.742188 -8.316406 5.140625 -8.296875 C 5.546875 -8.285156 5.789062 -8.125 5.875 -7.8125 C 5.9375 -7.695312 5.929688 -7.539062 5.859375 -7.34375 C 5.785156 -7.144531 5.550781 -6.929688 5.15625 -6.703125 C 4.664062 -6.441406 4.023438 -6.300781 3.234375 -6.28125 C 2.453125 -6.269531 1.800781 -6.363281 1.28125 -6.5625 C 0.507812 -6.21875 -0.015625 -5.863281 -0.296875 -5.5 C -0.492188 -5.289062 -0.550781 -5.128906 -0.46875 -5.015625 C -0.414062 -4.898438 -0.257812 -4.789062 0 -4.6875 C 0.257812 -4.59375 0.546875 -4.53125 0.859375 -4.5 C 1.398438 -4.476562 2.609375 -4.613281 4.484375 -4.90625 C 6.359375 -5.207031 8.597656 -5.789062 11.203125 -6.65625 C 11.460938 -6.707031 11.617188 -6.617188 11.671875 -6.390625 C 11.785156 -6.140625 11.710938 -5.984375 11.453125 -5.921875 C 8.941406 -5.085938 6.753906 -4.515625 4.890625 -4.203125 C 3.035156 -3.890625 1.75 -3.734375 1.03125 -3.734375 Z M 2.484375 -7.078125 C 2.890625 -7.054688 3.304688 -7.066406 3.734375 -7.109375 C 4.160156 -7.148438 4.503906 -7.238281 4.765625 -7.375 L 5.015625 -7.546875 L 4.375 -7.546875 C 3.914062 -7.492188 3.285156 -7.335938 2.484375 -7.078125 Z M 2.484375 -7.078125" stroke-linecap="round" />
</g>
		<g transform="matrix(1.33 0 0 1.33 -18.01 4.56)"  >
<path style="stroke: none; stroke-width: 1; stroke-dasharray: none; stroke-linecap: butt; stroke-dashoffset: 0; stroke-linejoin: miter; stroke-miterlimit: 4; fill: rgb(0,0,0); fill-rule: nonzero; opacity: 1;" vector-effect="non-scaling-stroke"  transform=" translate(-7.35, 9.36)" d="M 16.875 -14.984375 C 16.957031 -14.921875 17.007812 -14.816406 17.03125 -14.671875 C 17.0625 -14.535156 16.992188 -14.351562 16.828125 -14.125 C 16.515625 -13.695312 15.984375 -13.195312 15.234375 -12.625 C 14.492188 -12.050781 13.632812 -11.457031 12.65625 -10.84375 C 11.6875 -10.226562 10.707031 -9.632812 9.71875 -9.0625 C 8.726562 -8.488281 7.8125 -7.972656 6.96875 -7.515625 C 6.125 -7.054688 5.460938 -6.710938 4.984375 -6.484375 C 4.148438 -5.679688 3.691406 -5.15625 3.609375 -4.90625 C 3.523438 -4.664062 3.484375 -4.546875 3.484375 -4.546875 C 3.503906 -4.515625 3.578125 -4.484375 3.703125 -4.453125 C 3.835938 -4.429688 4.0625 -4.4375 4.375 -4.46875 C 4.75 -4.519531 5.359375 -4.648438 6.203125 -4.859375 C 7.046875 -5.078125 7.960938 -5.351562 8.953125 -5.6875 C 9.941406 -6.019531 10.820312 -6.328125 11.59375 -6.609375 C 11.757812 -6.671875 11.878906 -6.675781 11.953125 -6.625 C 12.023438 -6.582031 12.078125 -6.519531 12.109375 -6.4375 C 12.191406 -6.175781 12.117188 -6.003906 11.890625 -5.921875 C 11.054688 -5.609375 10.140625 -5.285156 9.140625 -4.953125 C 8.140625 -4.628906 7.203125 -4.351562 6.328125 -4.125 C 5.453125 -3.894531 4.816406 -3.75 4.421875 -3.6875 L 4.03125 -3.640625 C 3.375 -3.640625 2.960938 -3.84375 2.796875 -4.25 C 2.765625 -4.363281 2.738281 -4.476562 2.71875 -4.59375 C 2.707031 -4.707031 2.742188 -4.863281 2.828125 -5.0625 C 1.972656 -4.601562 1.160156 -4.265625 0.390625 -4.046875 C -0.378906 -3.835938 -0.992188 -3.734375 -1.453125 -3.734375 C -1.773438 -3.734375 -1.992188 -3.796875 -2.109375 -3.921875 C -2.222656 -4.054688 -2.289062 -4.148438 -2.3125 -4.203125 C -2.488281 -4.722656 -1.929688 -5.453125 -0.640625 -6.390625 C 0.753906 -7.421875 1.894531 -7.953125 2.78125 -7.984375 C 3.675781 -8.015625 4.265625 -7.859375 4.546875 -7.515625 C 4.578125 -7.484375 4.601562 -7.445312 4.625 -7.40625 C 4.65625 -7.363281 4.671875 -7.328125 4.671875 -7.296875 L 5.015625 -7.546875 C 5.960938 -8.441406 7.050781 -9.351562 8.28125 -10.28125 C 9.507812 -11.207031 10.785156 -12.085938 12.109375 -12.921875 C 13.503906 -13.804688 14.523438 -14.390625 15.171875 -14.671875 C 15.816406 -14.960938 16.242188 -15.097656 16.453125 -15.078125 C 16.671875 -15.066406 16.8125 -15.035156 16.875 -14.984375 Z M 7.34375 -8.546875 C 8.375 -9.117188 9.453125 -9.738281 10.578125 -10.40625 C 11.710938 -11.082031 12.757812 -11.753906 13.71875 -12.421875 C 14.675781 -13.097656 15.394531 -13.679688 15.875 -14.171875 C 15.363281 -13.960938 14.640625 -13.578125 13.703125 -13.015625 C 12.773438 -12.460938 11.753906 -11.800781 10.640625 -11.03125 C 9.523438 -10.257812 8.425781 -9.429688 7.34375 -8.546875 Z M -1.546875 -4.46875 L -1.453125 -4.46875 C -0.941406 -4.46875 -0.179688 -4.644531 0.828125 -5 C 1.847656 -5.351562 2.832031 -5.875 3.78125 -6.5625 L 3.90625 -6.703125 C 3.988281 -6.816406 4.019531 -6.894531 4 -6.9375 C 3.988281 -6.976562 3.984375 -7.015625 3.984375 -7.046875 C 3.816406 -7.242188 3.359375 -7.289062 2.609375 -7.1875 C 1.867188 -7.09375 0.941406 -6.628906 -0.171875 -5.796875 C -0.679688 -5.421875 -1.03125 -5.125 -1.21875 -4.90625 C -1.40625 -4.695312 -1.515625 -4.550781 -1.546875 -4.46875 Z M -1.546875 -4.46875" stroke-linecap="round" />
</g>
		<g transform="matrix(1.33 0 0 1.33 -2.16 4.56)"  >
<path style="stroke: none; stroke-width: 1; stroke-dasharray: none; stroke-linecap: butt; stroke-dashoffset: 0; stroke-linejoin: miter; stroke-miterlimit: 4; fill: rgb(0,0,0); fill-rule: nonzero; opacity: 1;" vector-effect="non-scaling-stroke"  transform=" translate(-7.35, 9.36)" d="M 16.875 -14.984375 C 16.957031 -14.921875 17.007812 -14.816406 17.03125 -14.671875 C 17.0625 -14.535156 16.992188 -14.351562 16.828125 -14.125 C 16.515625 -13.695312 15.984375 -13.195312 15.234375 -12.625 C 14.492188 -12.050781 13.632812 -11.457031 12.65625 -10.84375 C 11.6875 -10.226562 10.707031 -9.632812 9.71875 -9.0625 C 8.726562 -8.488281 7.8125 -7.972656 6.96875 -7.515625 C 6.125 -7.054688 5.460938 -6.710938 4.984375 -6.484375 C 4.148438 -5.679688 3.691406 -5.15625 3.609375 -4.90625 C 3.523438 -4.664062 3.484375 -4.546875 3.484375 -4.546875 C 3.503906 -4.515625 3.578125 -4.484375 3.703125 -4.453125 C 3.835938 -4.429688 4.0625 -4.4375 4.375 -4.46875 C 4.75 -4.519531 5.359375 -4.648438 6.203125 -4.859375 C 7.046875 -5.078125 7.960938 -5.351562 8.953125 -5.6875 C 9.941406 -6.019531 10.820312 -6.328125 11.59375 -6.609375 C 11.757812 -6.671875 11.878906 -6.675781 11.953125 -6.625 C 12.023438 -6.582031 12.078125 -6.519531 12.109375 -6.4375 C 12.191406 -6.175781 12.117188 -6.003906 11.890625 -5.921875 C 11.054688 -5.609375 10.140625 -5.285156 9.140625 -4.953125 C 8.140625 -4.628906 7.203125 -4.351562 6.328125 -4.125 C 5.453125 -3.894531 4.816406 -3.75 4.421875 -3.6875 L 4.03125 -3.640625 C 3.375 -3.640625 2.960938 -3.84375 2.796875 -4.25 C 2.765625 -4.363281 2.738281 -4.476562 2.71875 -4.59375 C 2.707031 -4.707031 2.742188 -4.863281 2.828125 -5.0625 C 1.972656 -4.601562 1.160156 -4.265625 0.390625 -4.046875 C -0.378906 -3.835938 -0.992188 -3.734375 -1.453125 -3.734375 C -1.773438 -3.734375 -1.992188 -3.796875 -2.109375 -3.921875 C -2.222656 -4.054688 -2.289062 -4.148438 -2.3125 -4.203125 C -2.488281 -4.722656 -1.929688 -5.453125 -0.640625 -6.390625 C 0.753906 -7.421875 1.894531 -7.953125 2.78125 -7.984375 C 3.675781 -8.015625 4.265625 -7.859375 4.546875 -7.515625 C 4.578125 -7.484375 4.601562 -7.445312 4.625 -7.40625 C 4.65625 -7.363281 4.671875 -7.328125 4.671875 -7.296875 L 5.015625 -7.546875 C 5.960938 -8.441406 7.050781 -9.351562 8.28125 -10.28125 C 9.507812 -11.207031 10.785156 -12.085938 12.109375 -12.921875 C 13.503906 -13.804688 14.523438 -14.390625 15.171875 -14.671875 C 15.816406 -14.960938 16.242188 -15.097656 16.453125 -15.078125 C 16.671875 -15.066406 16.8125 -15.035156 16.875 -14.984375 Z M 7.34375 -8.546875 C 8.375 -9.117188 9.453125 -9.738281 10.578125 -10.40625 C 11.710938 -11.082031 12.757812 -11.753906 13.71875 -12.421875 C 14.675781 -13.097656 15.394531 -13.679688 15.875 -14.171875 C 15.363281 -13.960938 14.640625 -13.578125 13.703125 -13.015625 C 12.773438 -12.460938 11.753906 -11.800781 10.640625 -11.03125 C 9.523438 -10.257812 8.425781 -9.429688 7.34375 -8.546875 Z M -1.546875 -4.46875 L -1.453125 -4.46875 C -0.941406 -4.46875 -0.179688 -4.644531 0.828125 -5 C 1.847656 -5.351562 2.832031 -5.875 3.78125 -6.5625 L 3.90625 -6.703125 C 3.988281 -6.816406 4.019531 -6.894531 4 -6.9375 C 3.988281 -6.976562 3.984375 -7.015625 3.984375 -7.046875 C 3.816406 -7.242188 3.359375 -7.289062 2.609375 -7.1875 C 1.867188 -7.09375 0.941406 -6.628906 -0.171875 -5.796875 C -0.679688 -5.421875 -1.03125 -5.125 -1.21875 -4.90625 C -1.40625 -4.695312 -1.515625 -4.550781 -1.546875 -4.46875 Z M -1.546875 -4.46875" stroke-linecap="round" />
</g>
		<g transform="matrix(1.33 0 0 1.33 10.31 8.03)"  >
<path style="stroke: none; stroke-width: 1; stroke-dasharray: none; stroke-linecap: butt; stroke-dashoffset: 0; stroke-linejoin: miter; stroke-miterlimit: 4; fill: rgb(0,0,0); fill-rule: nonzero; opacity: 1;" vector-effect="non-scaling-stroke"  transform=" translate(-4.81, 6.76)" d="M 3.171875 -8.796875 C 3.054688 -8.796875 2.957031 -8.835938 2.875 -8.921875 C 2.726562 -9.128906 2.742188 -9.316406 2.921875 -9.484375 L 3.140625 -9.65625 C 3.222656 -9.738281 3.320312 -9.765625 3.4375 -9.734375 C 3.550781 -9.710938 3.632812 -9.671875 3.6875 -9.609375 C 3.863281 -9.441406 3.847656 -9.257812 3.640625 -9.0625 L 3.4375 -8.890625 C 3.375 -8.828125 3.285156 -8.796875 3.171875 -8.796875 Z M 0.421875 -3.78125 C -0.117188 -3.78125 -0.507812 -3.863281 -0.75 -4.03125 C -0.988281 -4.207031 -1.140625 -4.378906 -1.203125 -4.546875 C -1.429688 -5.117188 -1.203125 -5.707031 -0.515625 -6.3125 L -0.296875 -6.53125 C -0.0664062 -6.757812 0.101562 -6.921875 0.21875 -7.015625 C 0.332031 -7.117188 0.585938 -7.3125 0.984375 -7.59375 L 1.25 -7.8125 C 1.445312 -7.957031 1.617188 -7.925781 1.765625 -7.71875 C 1.898438 -7.519531 1.882812 -7.347656 1.71875 -7.203125 L 1.453125 -7 C 1.085938 -6.707031 0.847656 -6.519531 0.734375 -6.4375 C 0.617188 -6.351562 0.445312 -6.195312 0.21875 -5.96875 L 0 -5.75 C -0.457031 -5.351562 -0.613281 -5.050781 -0.46875 -4.84375 C -0.414062 -4.644531 -0.117188 -4.546875 0.421875 -4.546875 L 0.46875 -4.546875 C 0.957031 -4.546875 1.613281 -4.609375 2.4375 -4.734375 C 3.269531 -4.867188 4.171875 -5.035156 5.140625 -5.234375 C 6.117188 -5.429688 7.070312 -5.648438 8 -5.890625 C 8.9375 -6.140625 9.734375 -6.394531 10.390625 -6.65625 C 10.640625 -6.707031 10.796875 -6.617188 10.859375 -6.390625 C 10.972656 -6.191406 10.898438 -6.035156 10.640625 -5.921875 C 9.953125 -5.660156 9.132812 -5.410156 8.1875 -5.171875 C 7.25 -4.929688 6.28125 -4.703125 5.28125 -4.484375 C 4.28125 -4.265625 3.347656 -4.09375 2.484375 -3.96875 C 1.628906 -3.84375 0.957031 -3.78125 0.46875 -3.78125 Z M 0.421875 -3.78125" stroke-linecap="round" />
</g>
		<g transform="matrix(1.33 0 0 1.33 25.06 9.06)"  >
<path style="stroke: none; stroke-width: 1; stroke-dasharray: none; stroke-linecap: butt; stroke-dashoffset: 0; stroke-linejoin: miter; stroke-miterlimit: 4; fill: rgb(0,0,0); fill-rule: nonzero; opacity: 1;" vector-effect="non-scaling-stroke"  transform=" translate(-5.27, 5.99)" d="M -2.40625 -3.640625 C -2.519531 -3.640625 -2.617188 -3.6875 -2.703125 -3.78125 C -2.878906 -3.945312 -2.863281 -4.117188 -2.65625 -4.296875 L 1.328125 -8.203125 C 1.503906 -8.367188 1.675781 -8.367188 1.84375 -8.203125 C 2.039062 -8.023438 2.039062 -7.835938 1.84375 -7.640625 L 0.5625 -6.390625 C 1.53125 -6.960938 2.515625 -7.460938 3.515625 -7.890625 C 4.515625 -8.328125 5.289062 -8.441406 5.84375 -8.234375 C 6.039062 -8.148438 6.164062 -8.050781 6.21875 -7.9375 C 6.28125 -7.820312 6.328125 -7.722656 6.359375 -7.640625 C 6.410156 -7.347656 6.3125 -7.035156 6.0625 -6.703125 C 5.820312 -6.378906 5.578125 -6.09375 5.328125 -5.84375 C 4.546875 -5.125 4.128906 -4.675781 4.078125 -4.5 L 4.421875 -4.546875 C 4.617188 -4.578125 5.125 -4.671875 5.9375 -4.828125 C 6.757812 -4.984375 7.773438 -5.21875 8.984375 -5.53125 C 10.203125 -5.851562 11.5 -6.226562 12.875 -6.65625 C 13.101562 -6.707031 13.257812 -6.617188 13.34375 -6.390625 C 13.40625 -6.140625 13.320312 -5.984375 13.09375 -5.921875 C 11.6875 -5.492188 10.367188 -5.117188 9.140625 -4.796875 C 7.910156 -4.484375 6.878906 -4.238281 6.046875 -4.0625 C 5.222656 -3.894531 4.707031 -3.800781 4.5 -3.78125 C 4.363281 -3.75 4.160156 -3.742188 3.890625 -3.765625 C 3.617188 -3.796875 3.425781 -3.925781 3.3125 -4.15625 C 3.195312 -4.414062 3.265625 -4.71875 3.515625 -5.0625 C 3.773438 -5.40625 4.207031 -5.847656 4.8125 -6.390625 C 5.382812 -6.960938 5.640625 -7.335938 5.578125 -7.515625 C 5.296875 -7.628906 4.847656 -7.578125 4.234375 -7.359375 C 3.617188 -7.148438 2.929688 -6.835938 2.171875 -6.421875 C 1.410156 -6.003906 0.644531 -5.550781 -0.125 -5.0625 C -0.894531 -4.570312 -1.582031 -4.113281 -2.1875 -3.6875 C -2.25 -3.65625 -2.320312 -3.640625 -2.40625 -3.640625 Z M -2.40625 -3.640625" stroke-linecap="round" />
</g>
		<g transform="matrix(1.33 0 0 1.33 34.9 14.9)"  >
<path style="stroke: none; stroke-width: 1; stroke-dasharray: none; stroke-linecap: butt; stroke-dashoffset: 0; stroke-linejoin: miter; stroke-miterlimit: 4; fill: rgb(0,0,0); fill-rule: nonzero; opacity: 1;" vector-effect="non-scaling-stroke"  transform=" translate(0.39, 1.61)" d="M 10.46875 -6.4375 C 10.582031 -6.207031 10.523438 -6.035156 10.296875 -5.921875 C 9.242188 -5.492188 8.03125 -4.992188 6.65625 -4.421875 C 5.28125 -3.847656 3.832031 -3.273438 2.3125 -2.703125 L -1.203125 -1.375 L -2.015625 -0.734375 C -3.992188 0.785156 -5.5625 1.929688 -6.71875 2.703125 C -7.875 3.472656 -8.738281 3.992188 -9.3125 4.265625 C -9.882812 4.535156 -10.300781 4.671875 -10.5625 4.671875 C -10.675781 4.671875 -10.765625 4.648438 -10.828125 4.609375 C -10.898438 4.566406 -10.96875 4.53125 -11.03125 4.5 C -11.289062 4.300781 -11.367188 4.03125 -11.265625 3.6875 C -11.160156 3.34375 -11.097656 3.113281 -11.078125 3 C -10.765625 2.3125 -9.773438 1.566406 -8.109375 0.765625 C -6.453125 -0.0234375 -4.28125 -0.953125 -1.59375 -2.015625 C -1.1875 -2.328125 -0.773438 -2.65625 -0.359375 -3 C 0.046875 -3.34375 0.46875 -3.6875 0.90625 -4.03125 C 0.46875 -3.863281 0.09375 -3.78125 -0.21875 -3.78125 C -0.5625 -3.78125 -0.796875 -3.847656 -0.921875 -3.984375 C -1.046875 -4.128906 -1.140625 -4.257812 -1.203125 -4.375 C -1.367188 -4.863281 -1.335938 -5.320312 -1.109375 -5.75 C -0.828125 -6.238281 -0.34375 -6.625 0.34375 -6.90625 C 1.03125 -7.195312 1.722656 -7.410156 2.421875 -7.546875 C 3.128906 -7.691406 3.648438 -7.78125 3.984375 -7.8125 L 4.25 -7.859375 C 4.445312 -7.910156 4.625 -7.894531 4.78125 -7.8125 C 4.9375 -7.726562 5.0625 -7.613281 5.15625 -7.46875 C 5.269531 -7.46875 5.382812 -7.410156 5.5 -7.296875 C 5.664062 -7.128906 5.648438 -6.957031 5.453125 -6.78125 L 4.984375 -6.359375 C 4.921875 -6.328125 4.863281 -6.28125 4.8125 -6.21875 C 4.8125 -6.21875 4.78125 -6.191406 4.71875 -6.140625 L 0.765625 -2.96875 L 2.0625 -3.4375 C 3.570312 -4.007812 5.003906 -4.570312 6.359375 -5.125 C 7.722656 -5.6875 8.921875 -6.179688 9.953125 -6.609375 C 10.179688 -6.691406 10.351562 -6.632812 10.46875 -6.4375 Z M -0.515625 -4.640625 C -0.484375 -4.609375 -0.453125 -4.578125 -0.421875 -4.546875 C -0.398438 -4.515625 -0.332031 -4.5 -0.21875 -4.5 C 0.15625 -4.5 0.648438 -4.648438 1.265625 -4.953125 C 1.878906 -5.253906 2.472656 -5.597656 3.046875 -5.984375 C 3.617188 -6.367188 4.046875 -6.664062 4.328125 -6.875 C 4.441406 -6.957031 4.5 -7.023438 4.5 -7.078125 C 4.476562 -7.078125 4.46875 -7.082031 4.46875 -7.09375 C 4.46875 -7.113281 4.453125 -7.125 4.421875 -7.125 L 4.125 -7.078125 C 2.519531 -6.847656 1.394531 -6.566406 0.75 -6.234375 C 0.101562 -5.910156 -0.285156 -5.617188 -0.421875 -5.359375 C -0.566406 -5.191406 -0.597656 -4.953125 -0.515625 -4.640625 Z M -10.5625 3.859375 C -10.1875 3.890625 -9.382812 3.507812 -8.15625 2.71875 C -6.925781 1.9375 -5.476562 0.914062 -3.8125 -0.34375 C -5.476562 0.34375 -6.929688 1.007812 -8.171875 1.65625 C -9.421875 2.300781 -10.144531 2.851562 -10.34375 3.3125 C -10.488281 3.59375 -10.5625 3.773438 -10.5625 3.859375 Z M -10.5625 3.859375" stroke-linecap="round" />
</g>
		<g transform="matrix(1.33 0 0 1.33 54.93 9.11)"  >
<path style="stroke: none; stroke-width: 1; stroke-dasharray: none; stroke-linecap: butt; stroke-dashoffset: 0; stroke-linejoin: miter; stroke-miterlimit: 4; fill: rgb(0,0,0); fill-rule: nonzero; opacity: 1;" vector-effect="non-scaling-stroke"  transform=" translate(-4.37, 5.95)" d="M -0.46875 -3.171875 C -0.664062 -3.171875 -0.851562 -3.203125 -1.03125 -3.265625 C -1.195312 -3.347656 -1.28125 -3.488281 -1.28125 -3.6875 C -1.28125 -3.914062 -1.144531 -4.078125 -0.875 -4.171875 C -0.601562 -4.273438 0.128906 -4.429688 1.328125 -4.640625 L 1.765625 -4.71875 L 1.84375 -4.765625 C 1.757812 -4.816406 1.644531 -4.859375 1.5 -4.890625 C 1.351562 -4.921875 1.222656 -4.953125 1.109375 -4.984375 C 0.796875 -5.097656 0.503906 -5.203125 0.234375 -5.296875 C -0.0351562 -5.398438 -0.210938 -5.566406 -0.296875 -5.796875 C -0.378906 -5.992188 -0.363281 -6.242188 -0.25 -6.546875 C -0.132812 -6.847656 0.21875 -7.179688 0.8125 -7.546875 C 1.300781 -7.867188 1.890625 -8.144531 2.578125 -8.375 C 3.265625 -8.601562 3.921875 -8.722656 4.546875 -8.734375 C 5.179688 -8.742188 5.640625 -8.578125 5.921875 -8.234375 C 6.097656 -8.066406 6.097656 -7.894531 5.921875 -7.71875 C 5.722656 -7.550781 5.535156 -7.550781 5.359375 -7.71875 C 5.222656 -7.894531 4.910156 -7.96875 4.421875 -7.9375 C 3.929688 -7.90625 3.394531 -7.800781 2.8125 -7.625 C 2.226562 -7.457031 1.691406 -7.21875 1.203125 -6.90625 C 0.546875 -6.539062 0.285156 -6.253906 0.421875 -6.046875 C 0.484375 -6.023438 0.613281 -5.976562 0.8125 -5.90625 C 1.007812 -5.832031 1.179688 -5.765625 1.328125 -5.703125 C 1.671875 -5.617188 1.976562 -5.519531 2.25 -5.40625 C 2.519531 -5.289062 2.671875 -5.101562 2.703125 -4.84375 C 3.160156 -4.957031 3.625 -5.054688 4.09375 -5.140625 C 4.570312 -5.234375 5.007812 -5.335938 5.40625 -5.453125 C 6.5 -5.765625 7.453125 -6.039062 8.265625 -6.28125 C 9.078125 -6.53125 9.5 -6.65625 9.53125 -6.65625 C 9.757812 -6.707031 9.914062 -6.617188 10 -6.390625 C 10.0625 -6.140625 9.976562 -5.984375 9.75 -5.921875 C 9.71875 -5.921875 9.289062 -5.796875 8.46875 -5.546875 C 7.65625 -5.304688 6.691406 -5.03125 5.578125 -4.71875 C 5.035156 -4.570312 4.457031 -4.4375 3.84375 -4.3125 C 3.226562 -4.1875 2.632812 -4.078125 2.0625 -3.984375 C 1.65625 -3.753906 1.21875 -3.5625 0.75 -3.40625 C 0.28125 -3.25 -0.125 -3.171875 -0.46875 -3.171875 Z M -0.46875 -3.171875" stroke-linecap="round" />
</g>
</g>
</g>
</svg>