<?xml version="1.0" encoding="UTF-8" standalone="no" ?>
<!DOCTYPE svg PUBLIC "-//W3C//DTD SVG 1.1//EN" "http://www.w3.org/Graphics/SVG/1.1/DTD/svg11.dtd">
<svg xmlns="http://www.w3.org/2000/svg" xmlns:xlink="http://www.w3.org/1999/xlink" version="1.1" width="1080" height="1080" viewBox="0 0 1080 1080" xml:space="preserve">
<desc>Created with Fabric.js 5.2.4</desc>
<defs>
</defs>
<g transform="matrix(1 0 0 1 540 540)" id="13b5f962-66b0-4992-a296-62adbd16181e"  >
<rect style="stroke: none; stroke-width: 1; stroke-dasharray: none; stroke-linecap: butt; stroke-dashoffset: 0; stroke-linejoin: miter; stroke-miterlimit: 4; fill: rgb(255,255,255); fill-rule: nonzero; opacity: 1; visibility: hidden;" vector-effect="non-scaling-stroke"  x="-540" y="-540" rx="0" ry="0" width="1080" height="1080" />
</g>
<g transform="matrix(1 0 0 1 540 540)" id="44c0155d-d32f-42f4-bc11-a14bc9428e26"  >
</g>
<g transform="matrix(NaN NaN NaN NaN 0 0)"  >
<g style=""   >
</g>
</g>
<g transform="matrix(4.03 0 0 4.03 540 540)"  >
<g style="" vector-effect="non-scaling-stroke"   >
		<g transform="matrix(1.33 0 0 1.33 0 0)" clip-path="url(#CLIPPATH_4)"  >
<clipPath id="CLIPPATH_4" >
	<path transform="matrix(1 0 0 1 0 0) translate(-105.15, -166.87)" id="382" clip-path="url(#undefined)" d="M 105.144531 67.9375 C 50.507812 67.9375 6.214844 112.230469 6.214844 166.871094 C 6.214844 221.507812 50.507812 265.804688 105.144531 265.804688 C 159.785156 265.804688 204.078125 221.507812 204.078125 166.871094 C 204.078125 112.230469 159.785156 67.9375 105.144531 67.9375 Z M 105.144531 67.9375" stroke-linecap="round" />
</clipPath>
<path style="stroke: none; stroke-width: 1; stroke-dasharray: none; stroke-linecap: butt; stroke-dashoffset: 0; stroke-linejoin: miter; stroke-miterlimit: 4; fill: rgb(215,220,188); fill-rule: nonzero; opacity: 1;" vector-effect="non-scaling-stroke"  transform=" translate(-105.15, -166.87)" d="M 6.214844 67.9375 L 204.078125 67.9375 L 204.078125 265.804688 L 6.214844 265.804688 Z M 6.214844 67.9375" stroke-linecap="round" />
</g>
		<g transform="matrix(1.33 0 0 1.33 30.27 -15.32)" clip-path="url(#CLIPPATH_5)"  >
<clipPath id="CLIPPATH_5" >
	<path transform="matrix(1 0 0 1 3.04 3.87) translate(-130.89, -159.25)" id="a60946198c" clip-path="url(#undefined)" d="M 170.761719 134.121094 L 98.089844 193.101562 L 91.011719 184.378906 L 163.683594 125.402344 Z M 170.761719 134.121094" stroke-linecap="round" />
</clipPath>
<path style="stroke: none; stroke-width: 1; stroke-dasharray: none; stroke-linecap: butt; stroke-dashoffset: 0; stroke-linejoin: miter; stroke-miterlimit: 4; fill: rgb(83,89,49); fill-rule: nonzero; opacity: 1;" vector-effect="non-scaling-stroke"  transform=" translate(-127.85, -155.38)" d="M 164.53125 126.636719 C 161.03125 133.839844 156.621094 140.613281 151.523438 146.816406 L 149.582031 149.121094 L 147.574219 151.363281 L 145.503906 153.554688 L 143.378906 155.691406 C 140.503906 158.496094 137.46875 161.140625 134.3125 163.625 C 131.144531 166.097656 127.851562 168.410156 124.441406 170.535156 L 121.859375 172.089844 L 119.238281 173.574219 L 116.578125 174.988281 L 113.878906 176.324219 C 106.636719 179.789062 99.003906 182.453125 91.171875 184.128906 C 98.910156 182.066406 106.414062 179.226562 113.550781 175.65625 L 116.207031 174.28125 L 118.832031 172.84375 L 121.417969 171.339844 L 123.960938 169.769531 C 127.328125 167.640625 130.59375 165.339844 133.726562 162.875 C 136.867188 160.425781 139.878906 157.804688 142.753906 155.042969 L 144.886719 152.949219 L 146.964844 150.796875 L 148.988281 148.59375 L 150.957031 146.34375 C 156.128906 140.265625 160.679688 133.65625 164.53125 126.636719 Z M 164.53125 126.636719" stroke-linecap="round" />
</g>
		<g transform="matrix(1.33 0 0 1.33 -10.99 -33.32)"  >
<path style="stroke: none; stroke-width: 1; stroke-dasharray: none; stroke-linecap: butt; stroke-dashoffset: 0; stroke-linejoin: miter; stroke-miterlimit: 4; fill: rgb(83,89,49); fill-rule: nonzero; opacity: 1;" vector-effect="non-scaling-stroke"  transform=" translate(-57.37, 79.36)" d="M 41.96875 -38.46875 C 42.207031 -36.625 41.894531 -35.671875 41.03125 -35.609375 C 40.175781 -35.546875 39.441406 -36.863281 38.828125 -39.5625 C 38.585938 -40.664062 38.34375 -42.015625 38.09375 -43.609375 C 37.851562 -45.210938 37.789062 -46.992188 37.90625 -48.953125 C 38.03125 -50.304688 38.125 -51.472656 38.1875 -52.453125 C 38.25 -53.429688 38.34375 -53.984375 38.46875 -54.109375 C 38.707031 -54.597656 38.457031 -54.90625 37.71875 -55.03125 C 36.988281 -55.15625 35.945312 -55.09375 34.59375 -54.84375 C 33.488281 -54.71875 32.171875 -54.59375 30.640625 -54.46875 C 29.109375 -54.351562 27.175781 -54.234375 24.84375 -54.109375 C 23.125 -54.109375 21.925781 -54.195312 21.25 -54.375 C 20.582031 -54.5625 20.125 -55.085938 19.875 -55.953125 C 19.382812 -57.179688 19.753906 -58.375 20.984375 -59.53125 C 22.210938 -60.695312 23.65625 -61.738281 25.3125 -62.65625 C 26.96875 -63.582031 28.160156 -64.226562 28.890625 -64.59375 C 31.097656 -65.582031 33.335938 -66.410156 35.609375 -67.078125 C 37.878906 -67.753906 40.242188 -68.460938 42.703125 -69.203125 C 43.191406 -69.328125 44.109375 -70.800781 45.453125 -73.625 C 46.804688 -76.5625 48.25 -79.441406 49.78125 -82.265625 C 51.3125 -85.085938 52.816406 -87.847656 54.296875 -90.546875 C 55.273438 -92.640625 56.039062 -94.050781 56.59375 -94.78125 C 57.144531 -95.519531 57.601562 -95.953125 57.96875 -96.078125 C 58.707031 -96.441406 59.320312 -96.378906 59.8125 -95.890625 C 60.0625 -95.640625 60.1875 -95.300781 60.1875 -94.875 C 60.1875 -94.445312 59.941406 -93.554688 59.453125 -92.203125 C 58.222656 -88.765625 56.71875 -85.453125 54.9375 -82.265625 C 53.15625 -79.078125 51.59375 -75.765625 50.25 -72.328125 L 49.515625 -70.3125 C 54.910156 -71.289062 59.476562 -71.898438 63.21875 -72.140625 C 66.957031 -72.390625 70.546875 -72.207031 73.984375 -71.59375 C 74.722656 -71.46875 75.457031 -71.710938 76.1875 -72.328125 C 76.925781 -72.941406 77.910156 -73.675781 79.140625 -74.53125 C 82.453125 -76.863281 85.703125 -79.503906 88.890625 -82.453125 C 92.085938 -85.398438 94.664062 -88.742188 96.625 -92.484375 C 98.582031 -96.222656 99.257812 -100.363281 98.65625 -104.90625 C 98.039062 -109.6875 96.257812 -113.304688 93.3125 -115.765625 C 90.363281 -118.222656 86.863281 -119.910156 82.8125 -120.828125 C 78.769531 -121.742188 74.722656 -122.140625 70.671875 -122.015625 C 63.554688 -121.898438 56.410156 -120.828125 49.234375 -118.796875 C 42.054688 -116.773438 35.273438 -113.800781 28.890625 -109.875 C 27.054688 -108.644531 24.972656 -107.078125 22.640625 -105.171875 C 20.304688 -103.273438 18.3125 -101.160156 16.65625 -98.828125 C 15 -96.503906 14.109375 -94.050781 13.984375 -91.46875 C 13.984375 -91.226562 14.164062 -90.675781 14.53125 -89.8125 C 14.90625 -88.957031 15.335938 -88.53125 15.828125 -88.53125 C 16.929688 -88.53125 17.390625 -88.253906 17.203125 -87.703125 C 17.023438 -87.148438 16.382812 -86.929688 15.28125 -87.046875 C 14.175781 -87.296875 13.5 -87.941406 13.25 -88.984375 C 13.007812 -90.023438 12.890625 -90.851562 12.890625 -91.46875 C 12.890625 -92.332031 13.222656 -93.679688 13.890625 -95.515625 C 14.566406 -97.359375 15.335938 -98.832031 16.203125 -99.9375 C 18.035156 -102.757812 21.253906 -105.765625 25.859375 -108.953125 C 30.460938 -112.140625 35.398438 -114.835938 40.671875 -117.046875 C 44.960938 -118.765625 49.441406 -120.113281 54.109375 -121.09375 C 58.773438 -122.082031 63.128906 -122.695312 67.171875 -122.9375 C 70.484375 -123.1875 73.976562 -123.15625 77.65625 -122.84375 C 81.34375 -122.539062 84.84375 -121.835938 88.15625 -120.734375 C 91.46875 -119.628906 94.320312 -117.878906 96.71875 -115.484375 C 99.113281 -113.097656 100.675781 -109.878906 101.40625 -105.828125 C 102.269531 -101.648438 101.898438 -97.691406 100.296875 -93.953125 C 98.703125 -90.210938 96.460938 -86.835938 93.578125 -83.828125 C 90.703125 -80.828125 87.671875 -78.222656 84.484375 -76.015625 C 81.171875 -73.804688 79.113281 -72.332031 78.3125 -71.59375 C 77.507812 -70.851562 77.359375 -70.484375 77.859375 -70.484375 C 78.460938 -70.484375 79.253906 -70.328125 80.234375 -70.015625 C 81.222656 -69.710938 81.835938 -69.257812 82.078125 -68.65625 C 82.328125 -68.28125 82.484375 -67.816406 82.546875 -67.265625 C 82.609375 -66.710938 81.960938 -66.4375 80.609375 -66.4375 C 80.242188 -66.4375 80 -66.554688 79.875 -66.796875 C 79.75 -67.046875 79.441406 -67.414062 78.953125 -67.90625 C 77.609375 -69.132812 76.320312 -69.628906 75.09375 -69.390625 C 74.226562 -69.265625 73.1875 -68.832031 71.96875 -68.09375 C 69.632812 -66.863281 66.84375 -65.515625 63.59375 -64.046875 C 60.34375 -62.578125 57.117188 -61.257812 53.921875 -60.09375 C 50.734375 -58.925781 47.851562 -58.035156 45.28125 -57.421875 C 44.539062 -57.054688 43.617188 -54.722656 42.515625 -50.421875 C 42.148438 -48.953125 41.9375 -47.050781 41.875 -44.71875 C 41.8125 -42.382812 41.84375 -40.300781 41.96875 -38.46875 Z M 45.28125 -59.265625 C 45.394531 -59.140625 46.34375 -59.289062 48.125 -59.71875 C 49.90625 -60.15625 51.222656 -60.492188 52.078125 -60.734375 C 54.285156 -61.597656 56.984375 -62.734375 60.171875 -64.140625 C 63.367188 -65.546875 66.191406 -66.863281 68.640625 -68.09375 C 71.097656 -69.320312 72.328125 -70.0625 72.328125 -70.3125 C 71.472656 -70.550781 70.492188 -70.703125 69.390625 -70.765625 C 68.285156 -70.828125 66.6875 -70.796875 64.59375 -70.671875 C 61.894531 -70.546875 59.257812 -70.269531 56.6875 -69.84375 C 54.113281 -69.414062 51.472656 -69.019531 48.765625 -68.65625 L 46.9375 -64.046875 Z M 29.625 -55.765625 C 33.3125 -56.015625 35.859375 -56.351562 37.265625 -56.78125 C 38.679688 -57.207031 39.445312 -57.789062 39.5625 -58.53125 C 39.5625 -59.257812 40.054688 -60.726562 41.046875 -62.9375 L 42.703125 -67.359375 C 42.941406 -67.847656 42.753906 -68 42.140625 -67.8125 C 41.523438 -67.632812 41.097656 -67.546875 40.859375 -67.546875 C 39.992188 -67.421875 38.519531 -66.988281 36.4375 -66.25 C 34.351562 -65.519531 32.144531 -64.601562 29.8125 -63.5 C 27.476562 -62.394531 25.484375 -61.195312 23.828125 -59.90625 C 22.171875 -58.613281 21.34375 -57.414062 21.34375 -56.3125 C 21.34375 -55.332031 24.101562 -55.148438 29.625 -55.765625 Z M 29.625 -55.765625" stroke-linecap="round" />
</g>
		<g transform="matrix(1.33 0 0 1.33 -82.55 54.09)"  >
<path style="stroke: none; stroke-width: 1; stroke-dasharray: none; stroke-linecap: butt; stroke-dashoffset: 0; stroke-linejoin: miter; stroke-miterlimit: 4; fill: rgb(83,89,49); fill-rule: nonzero; opacity: 1;" vector-effect="non-scaling-stroke"  transform=" translate(-6.04, 6.85)" d="M 3.6875 -1.734375 C 3.6875 -1.359375 3.753906 -1.007812 3.890625 -0.6875 C 4.035156 -0.363281 4.296875 -0.132812 4.671875 0 L 0.984375 0 C 1.390625 -0.132812 1.65625 -0.375 1.78125 -0.71875 C 1.914062 -1.0625 1.984375 -1.414062 1.984375 -1.78125 L 1.984375 -11.96875 C 1.984375 -12.332031 1.910156 -12.679688 1.765625 -13.015625 C 1.628906 -13.359375 1.367188 -13.585938 0.984375 -13.703125 L 6.015625 -13.703125 C 6.703125 -13.703125 7.351562 -13.625 7.96875 -13.46875 C 8.582031 -13.320312 9.117188 -13.082031 9.578125 -12.75 C 10.046875 -12.425781 10.414062 -12 10.6875 -11.46875 C 10.957031 -10.9375 11.09375 -10.289062 11.09375 -9.53125 C 11.09375 -8.800781 10.9375 -8.171875 10.625 -7.640625 C 10.320312 -7.109375 9.921875 -6.675781 9.421875 -6.34375 C 8.921875 -6.007812 8.351562 -5.757812 7.71875 -5.59375 C 7.082031 -5.4375 6.4375 -5.359375 5.78125 -5.359375 L 3.6875 -5.359375 Z M 3.6875 -5.59375 L 5.53125 -5.59375 C 6.75 -5.59375 7.691406 -5.953125 8.359375 -6.671875 C 9.023438 -7.390625 9.359375 -8.34375 9.359375 -9.53125 C 9.359375 -10.757812 9.023438 -11.722656 8.359375 -12.421875 C 7.703125 -13.117188 6.757812 -13.46875 5.53125 -13.46875 L 3.6875 -13.46875 Z M 3.6875 -5.59375" stroke-linecap="round" />
</g>
		<g transform="matrix(1.33 0 0 1.33 -64.79 53.99)"  >
<path style="stroke: none; stroke-width: 1; stroke-dasharray: none; stroke-linecap: butt; stroke-dashoffset: 0; stroke-linejoin: miter; stroke-miterlimit: 4; fill: rgb(83,89,49); fill-rule: nonzero; opacity: 1;" vector-effect="non-scaling-stroke"  transform=" translate(-7.29, 6.93)" d="M 2.90625 -1.28125 C 2.90625 -0.925781 3.003906 -0.644531 3.203125 -0.4375 C 3.410156 -0.238281 3.675781 -0.09375 4 0 L 1 0 C 1.34375 -0.113281 1.660156 -0.316406 1.953125 -0.609375 C 2.253906 -0.910156 2.46875 -1.238281 2.59375 -1.59375 L 7.359375 -13.859375 L 12.125 -1.59375 C 12.28125 -1.257812 12.472656 -0.9375 12.703125 -0.625 C 12.929688 -0.320312 13.222656 -0.113281 13.578125 0 L 9.5625 0 C 9.800781 -0.0703125 10 -0.234375 10.15625 -0.484375 C 10.320312 -0.734375 10.40625 -0.972656 10.40625 -1.203125 C 10.40625 -1.347656 10.335938 -1.609375 10.203125 -1.984375 C 10.066406 -2.359375 9.914062 -2.757812 9.75 -3.1875 C 9.582031 -3.613281 9.421875 -4.019531 9.265625 -4.40625 C 9.109375 -4.800781 8.992188 -5.09375 8.921875 -5.28125 L 4.3125 -5.28125 C 4.226562 -5.09375 4.113281 -4.816406 3.96875 -4.453125 C 3.820312 -4.085938 3.664062 -3.707031 3.5 -3.3125 C 3.34375 -2.914062 3.203125 -2.53125 3.078125 -2.15625 C 2.960938 -1.78125 2.90625 -1.488281 2.90625 -1.28125 Z M 4.359375 -5.5 L 8.8125 -5.5 L 6.59375 -11.265625 Z M 4.359375 -5.5" stroke-linecap="round" />
</g>
		<g transform="matrix(1.33 0 0 1.33 -46.15 54.09)"  >
<path style="stroke: none; stroke-width: 1; stroke-dasharray: none; stroke-linecap: butt; stroke-dashoffset: 0; stroke-linejoin: miter; stroke-miterlimit: 4; fill: rgb(83,89,49); fill-rule: nonzero; opacity: 1;" vector-effect="non-scaling-stroke"  transform=" translate(-6.68, 6.85)" d="M 7.515625 -1.78125 C 7.515625 -1.414062 7.578125 -1.0625 7.703125 -0.71875 C 7.835938 -0.375 8.113281 -0.132812 8.53125 0 L 4.8125 0 C 5.238281 -0.132812 5.507812 -0.367188 5.625 -0.703125 C 5.75 -1.035156 5.8125 -1.394531 5.8125 -1.78125 L 5.84375 -13.390625 L 4.53125 -13.390625 C 3.78125 -13.390625 3.09375 -13.191406 2.46875 -12.796875 C 1.84375 -12.410156 1.351562 -11.890625 1 -11.234375 L 1.484375 -13.703125 L 11.859375 -13.703125 L 12.359375 -11.265625 C 12.003906 -11.878906 11.507812 -12.382812 10.875 -12.78125 C 10.238281 -13.1875 9.554688 -13.390625 8.828125 -13.390625 L 7.515625 -13.390625 Z M 7.515625 -1.78125" stroke-linecap="round" />
</g>
		<g transform="matrix(1.33 0 0 1.33 -29.74 54.02)"  >
<path style="stroke: none; stroke-width: 1; stroke-dasharray: none; stroke-linecap: butt; stroke-dashoffset: 0; stroke-linejoin: miter; stroke-miterlimit: 4; fill: rgb(83,89,49); fill-rule: nonzero; opacity: 1;" vector-effect="non-scaling-stroke"  transform=" translate(-5.65, 6.91)" d="M 10.34375 -3.40625 C 10.34375 -2.769531 10.207031 -2.222656 9.9375 -1.765625 C 9.664062 -1.316406 9.316406 -0.945312 8.890625 -0.65625 C 8.460938 -0.363281 7.976562 -0.148438 7.4375 -0.015625 C 6.894531 0.109375 6.34375 0.171875 5.78125 0.171875 C 5.425781 0.171875 5.082031 0.125 4.75 0.03125 C 4.414062 -0.0625 4.09375 -0.160156 3.78125 -0.265625 C 3.476562 -0.367188 3.175781 -0.46875 2.875 -0.5625 C 2.582031 -0.65625 2.285156 -0.703125 1.984375 -0.703125 C 1.773438 -0.703125 1.578125 -0.644531 1.390625 -0.53125 C 1.210938 -0.414062 1.066406 -0.273438 0.953125 -0.109375 L 0.953125 -4.328125 C 1.117188 -3.847656 1.351562 -3.351562 1.65625 -2.84375 C 1.96875 -2.34375 2.332031 -1.890625 2.75 -1.484375 C 3.164062 -1.085938 3.628906 -0.757812 4.140625 -0.5 C 4.660156 -0.238281 5.203125 -0.109375 5.765625 -0.109375 C 6.148438 -0.109375 6.546875 -0.148438 6.953125 -0.234375 C 7.367188 -0.316406 7.738281 -0.457031 8.0625 -0.65625 C 8.382812 -0.851562 8.65625 -1.113281 8.875 -1.4375 C 9.09375 -1.757812 9.203125 -2.15625 9.203125 -2.625 C 9.203125 -3.207031 9.003906 -3.6875 8.609375 -4.0625 C 8.210938 -4.445312 7.722656 -4.796875 7.140625 -5.109375 C 6.554688 -5.429688 5.914062 -5.734375 5.21875 -6.015625 C 4.53125 -6.304688 3.894531 -6.644531 3.3125 -7.03125 C 2.726562 -7.414062 2.238281 -7.875 1.84375 -8.40625 C 1.457031 -8.9375 1.265625 -9.59375 1.265625 -10.375 C 1.265625 -10.96875 1.378906 -11.488281 1.609375 -11.9375 C 1.835938 -12.382812 2.144531 -12.757812 2.53125 -13.0625 C 2.914062 -13.375 3.359375 -13.601562 3.859375 -13.75 C 4.359375 -13.90625 4.890625 -13.984375 5.453125 -13.984375 C 5.828125 -13.984375 6.179688 -13.929688 6.515625 -13.828125 C 6.847656 -13.722656 7.15625 -13.609375 7.4375 -13.484375 C 7.726562 -13.367188 7.992188 -13.257812 8.234375 -13.15625 C 8.484375 -13.050781 8.691406 -13 8.859375 -13 C 9.117188 -13 9.320312 -13.078125 9.46875 -13.234375 C 9.625 -13.390625 9.738281 -13.570312 9.8125 -13.78125 C 9.789062 -13.207031 9.75 -12.632812 9.6875 -12.0625 C 9.632812 -11.488281 9.609375 -10.914062 9.609375 -10.34375 C 9.484375 -10.789062 9.28125 -11.21875 9 -11.625 C 8.71875 -12.039062 8.390625 -12.40625 8.015625 -12.71875 C 7.648438 -13.03125 7.242188 -13.285156 6.796875 -13.484375 C 6.347656 -13.679688 5.878906 -13.78125 5.390625 -13.78125 C 5.015625 -13.78125 4.644531 -13.726562 4.28125 -13.625 C 3.925781 -13.519531 3.609375 -13.367188 3.328125 -13.171875 C 3.046875 -12.984375 2.816406 -12.734375 2.640625 -12.421875 C 2.460938 -12.117188 2.375 -11.757812 2.375 -11.34375 C 2.375 -10.75 2.566406 -10.25 2.953125 -9.84375 C 3.347656 -9.445312 3.84375 -9.082031 4.4375 -8.75 C 5.039062 -8.414062 5.679688 -8.097656 6.359375 -7.796875 C 7.035156 -7.503906 7.671875 -7.160156 8.265625 -6.765625 C 8.867188 -6.367188 9.363281 -5.90625 9.75 -5.375 C 10.144531 -4.84375 10.34375 -4.1875 10.34375 -3.40625 Z M 10.34375 -3.40625" stroke-linecap="round" />
</g>
		<g transform="matrix(1.33 0 0 1.33 -18.67 54.09)"  >
<path style="stroke: none; stroke-width: 1; stroke-dasharray: none; stroke-linecap: butt; stroke-dashoffset: 0; stroke-linejoin: miter; stroke-miterlimit: 4; fill: rgb(83,89,49); fill-rule: nonzero; opacity: 1;" vector-effect="non-scaling-stroke"  transform=" translate(-2.83, 6.85)" d="M 3.6875 -1.78125 C 3.6875 -1.414062 3.75 -1.0625 3.875 -0.71875 C 4.007812 -0.375 4.273438 -0.132812 4.671875 0 L 0.984375 0 C 1.390625 -0.132812 1.65625 -0.367188 1.78125 -0.703125 C 1.914062 -1.035156 1.984375 -1.394531 1.984375 -1.78125 L 1.984375 -11.984375 C 1.984375 -12.359375 1.914062 -12.703125 1.78125 -13.015625 C 1.65625 -13.335938 1.390625 -13.566406 0.984375 -13.703125 L 4.671875 -13.703125 C 4.273438 -13.566406 4.007812 -13.335938 3.875 -13.015625 C 3.75 -12.703125 3.6875 -12.359375 3.6875 -11.984375 Z M 3.6875 -1.78125" stroke-linecap="round" />
</g>
		<g transform="matrix(1.33 0 0 1.33 -7.15 54.09)"  >
<path style="stroke: none; stroke-width: 1; stroke-dasharray: none; stroke-linecap: butt; stroke-dashoffset: 0; stroke-linejoin: miter; stroke-miterlimit: 4; fill: rgb(83,89,49); fill-rule: nonzero; opacity: 1;" vector-effect="non-scaling-stroke"  transform=" translate(-5.83, 6.85)" d="M 6.6875 -0.21875 C 7.613281 -0.21875 8.394531 -0.457031 9.03125 -0.9375 C 9.664062 -1.414062 10.210938 -2.035156 10.671875 -2.796875 L 10.0625 0 L 0.984375 0 C 1.390625 -0.132812 1.65625 -0.375 1.78125 -0.71875 C 1.914062 -1.0625 1.984375 -1.414062 1.984375 -1.78125 L 1.984375 -11.984375 C 1.984375 -12.359375 1.914062 -12.703125 1.78125 -13.015625 C 1.65625 -13.335938 1.390625 -13.566406 0.984375 -13.703125 L 4.671875 -13.703125 C 4.273438 -13.566406 4.007812 -13.335938 3.875 -13.015625 C 3.75 -12.703125 3.6875 -12.359375 3.6875 -11.984375 L 3.6875 -0.21875 Z M 6.6875 -0.21875" stroke-linecap="round" />
</g>
		<g transform="matrix(1.33 0 0 1.33 10.63 54.09)"  >
<path style="stroke: none; stroke-width: 1; stroke-dasharray: none; stroke-linecap: butt; stroke-dashoffset: 0; stroke-linejoin: miter; stroke-miterlimit: 4; fill: rgb(83,89,49); fill-rule: nonzero; opacity: 1;" vector-effect="non-scaling-stroke"  transform=" translate(-7.51, 6.85)" d="M 14.03125 -13.703125 C 13.582031 -13.546875 13.222656 -13.335938 12.953125 -13.078125 C 12.679688 -12.816406 12.460938 -12.472656 12.296875 -12.046875 L 7.359375 0 L 2.34375 -11.90625 C 2.195312 -12.226562 2.015625 -12.566406 1.796875 -12.921875 C 1.585938 -13.285156 1.316406 -13.546875 0.984375 -13.703125 L 4.859375 -13.703125 C 4.617188 -13.609375 4.425781 -13.4375 4.28125 -13.1875 C 4.144531 -12.945312 4.078125 -12.695312 4.078125 -12.4375 C 4.078125 -12.34375 4.164062 -12.050781 4.34375 -11.5625 C 4.519531 -11.082031 4.742188 -10.503906 5.015625 -9.828125 C 5.285156 -9.160156 5.582031 -8.441406 5.90625 -7.671875 C 6.238281 -6.898438 6.554688 -6.164062 6.859375 -5.46875 C 7.171875 -4.769531 7.441406 -4.148438 7.671875 -3.609375 C 7.898438 -3.066406 8.054688 -2.703125 8.140625 -2.515625 C 8.234375 -2.734375 8.394531 -3.117188 8.625 -3.671875 C 8.851562 -4.222656 9.117188 -4.859375 9.421875 -5.578125 C 9.722656 -6.296875 10.035156 -7.046875 10.359375 -7.828125 C 10.679688 -8.609375 10.976562 -9.332031 11.25 -10 C 11.519531 -10.675781 11.742188 -11.25 11.921875 -11.71875 C 12.097656 -12.195312 12.1875 -12.484375 12.1875 -12.578125 C 12.1875 -12.859375 12.070312 -13.097656 11.84375 -13.296875 C 11.625 -13.503906 11.382812 -13.640625 11.125 -13.703125 Z M 14.03125 -13.703125" stroke-linecap="round" />
</g>
		<g transform="matrix(1.33 0 0 1.33 30.32 53.99)"  >
<path style="stroke: none; stroke-width: 1; stroke-dasharray: none; stroke-linecap: butt; stroke-dashoffset: 0; stroke-linejoin: miter; stroke-miterlimit: 4; fill: rgb(83,89,49); fill-rule: nonzero; opacity: 1;" vector-effect="non-scaling-stroke"  transform=" translate(-7.29, 6.93)" d="M 2.90625 -1.28125 C 2.90625 -0.925781 3.003906 -0.644531 3.203125 -0.4375 C 3.410156 -0.238281 3.675781 -0.09375 4 0 L 1 0 C 1.34375 -0.113281 1.660156 -0.316406 1.953125 -0.609375 C 2.253906 -0.910156 2.46875 -1.238281 2.59375 -1.59375 L 7.359375 -13.859375 L 12.125 -1.59375 C 12.28125 -1.257812 12.472656 -0.9375 12.703125 -0.625 C 12.929688 -0.320312 13.222656 -0.113281 13.578125 0 L 9.5625 0 C 9.800781 -0.0703125 10 -0.234375 10.15625 -0.484375 C 10.320312 -0.734375 10.40625 -0.972656 10.40625 -1.203125 C 10.40625 -1.347656 10.335938 -1.609375 10.203125 -1.984375 C 10.066406 -2.359375 9.914062 -2.757812 9.75 -3.1875 C 9.582031 -3.613281 9.421875 -4.019531 9.265625 -4.40625 C 9.109375 -4.800781 8.992188 -5.09375 8.921875 -5.28125 L 4.3125 -5.28125 C 4.226562 -5.09375 4.113281 -4.816406 3.96875 -4.453125 C 3.820312 -4.085938 3.664062 -3.707031 3.5 -3.3125 C 3.34375 -2.914062 3.203125 -2.53125 3.078125 -2.15625 C 2.960938 -1.78125 2.90625 -1.488281 2.90625 -1.28125 Z M 4.359375 -5.5 L 8.8125 -5.5 L 6.59375 -11.265625 Z M 4.359375 -5.5" stroke-linecap="round" />
</g>
		<g transform="matrix(1.33 0 0 1.33 48.56 54.09)"  >
<path style="stroke: none; stroke-width: 1; stroke-dasharray: none; stroke-linecap: butt; stroke-dashoffset: 0; stroke-linejoin: miter; stroke-miterlimit: 4; fill: rgb(83,89,49); fill-rule: nonzero; opacity: 1;" vector-effect="non-scaling-stroke"  transform=" translate(-6.38, 6.85)" d="M 3.6875 -1.734375 C 3.6875 -1.359375 3.757812 -1.007812 3.90625 -0.6875 C 4.0625 -0.363281 4.328125 -0.132812 4.703125 0 L 1 0 C 1.394531 -0.132812 1.65625 -0.375 1.78125 -0.71875 C 1.914062 -1.0625 1.984375 -1.414062 1.984375 -1.78125 L 1.984375 -11.984375 C 1.984375 -12.359375 1.914062 -12.707031 1.78125 -13.03125 C 1.65625 -13.363281 1.394531 -13.585938 1 -13.703125 L 5.765625 -13.703125 C 6.429688 -13.703125 7.082031 -13.625 7.71875 -13.46875 C 8.363281 -13.320312 8.9375 -13.082031 9.4375 -12.75 C 9.945312 -12.425781 10.351562 -12 10.65625 -11.46875 C 10.96875 -10.9375 11.125 -10.289062 11.125 -9.53125 C 11.125 -8.425781 10.789062 -7.53125 10.125 -6.84375 C 9.46875 -6.15625 8.628906 -5.691406 7.609375 -5.453125 L 10.140625 -1.34375 C 10.347656 -1.039062 10.59375 -0.769531 10.875 -0.53125 C 11.15625 -0.289062 11.453125 -0.113281 11.765625 0 L 9.171875 0 L 5.84375 -5.390625 L 3.6875 -5.390625 Z M 3.6875 -5.59375 L 5.59375 -5.59375 C 6.769531 -5.59375 7.695312 -5.953125 8.375 -6.671875 C 9.050781 -7.398438 9.390625 -8.351562 9.390625 -9.53125 C 9.390625 -10.757812 9.0625 -11.722656 8.40625 -12.421875 C 7.757812 -13.117188 6.820312 -13.46875 5.59375 -13.46875 L 3.6875 -13.46875 Z M 3.6875 -5.59375" stroke-linecap="round" />
</g>
		<g transform="matrix(1.33 0 0 1.33 65.99 54.09)"  >
<path style="stroke: none; stroke-width: 1; stroke-dasharray: none; stroke-linecap: butt; stroke-dashoffset: 0; stroke-linejoin: miter; stroke-miterlimit: 4; fill: rgb(83,89,49); fill-rule: nonzero; opacity: 1;" vector-effect="non-scaling-stroke"  transform=" translate(-6.68, 6.85)" d="M 7.515625 -1.78125 C 7.515625 -1.414062 7.578125 -1.0625 7.703125 -0.71875 C 7.835938 -0.375 8.113281 -0.132812 8.53125 0 L 4.8125 0 C 5.238281 -0.132812 5.507812 -0.367188 5.625 -0.703125 C 5.75 -1.035156 5.8125 -1.394531 5.8125 -1.78125 L 5.84375 -13.390625 L 4.53125 -13.390625 C 3.78125 -13.390625 3.09375 -13.191406 2.46875 -12.796875 C 1.84375 -12.410156 1.351562 -11.890625 1 -11.234375 L 1.484375 -13.703125 L 11.859375 -13.703125 L 12.359375 -11.265625 C 12.003906 -11.878906 11.507812 -12.382812 10.875 -12.78125 C 10.238281 -13.1875 9.554688 -13.390625 8.828125 -13.390625 L 7.515625 -13.390625 Z M 7.515625 -1.78125" stroke-linecap="round" />
</g>
		<g transform="matrix(1.33 0 0 1.33 82.72 54.09)"  >
<path style="stroke: none; stroke-width: 1; stroke-dasharray: none; stroke-linecap: butt; stroke-dashoffset: 0; stroke-linejoin: miter; stroke-miterlimit: 4; fill: rgb(83,89,49); fill-rule: nonzero; opacity: 1;" vector-effect="non-scaling-stroke"  transform=" translate(-5.9, 6.85)" d="M 6.34375 -0.21875 C 7.21875 -0.21875 8.070312 -0.421875 8.90625 -0.828125 C 9.75 -1.242188 10.382812 -1.851562 10.8125 -2.65625 L 10.171875 0 L 0.984375 0 C 1.390625 -0.132812 1.65625 -0.375 1.78125 -0.71875 C 1.914062 -1.0625 1.984375 -1.414062 1.984375 -1.78125 L 1.984375 -11.984375 C 1.984375 -12.359375 1.914062 -12.707031 1.78125 -13.03125 C 1.65625 -13.363281 1.390625 -13.585938 0.984375 -13.703125 L 9.984375 -13.703125 L 10.53125 -11.0625 C 10.101562 -11.882812 9.53125 -12.488281 8.8125 -12.875 C 8.101562 -13.269531 7.289062 -13.46875 6.375 -13.46875 L 3.6875 -13.46875 L 3.6875 -7.078125 L 5.421875 -7.078125 C 5.921875 -7.078125 6.382812 -7.179688 6.8125 -7.390625 C 7.25 -7.609375 7.539062 -7.988281 7.6875 -8.53125 L 7.6875 -5.453125 C 7.539062 -5.992188 7.25 -6.359375 6.8125 -6.546875 C 6.382812 -6.742188 5.921875 -6.84375 5.421875 -6.84375 L 3.6875 -6.84375 L 3.6875 -0.21875 Z M 6.34375 -0.21875" stroke-linecap="round" />
</g>
		<g transform="matrix(1.33 0 0 1.33 -53.63 77.04)"  >
<path style="stroke: none; stroke-width: 1; stroke-dasharray: none; stroke-linecap: butt; stroke-dashoffset: 0; stroke-linejoin: miter; stroke-miterlimit: 4; fill: rgb(83,89,49); fill-rule: nonzero; opacity: 1;" vector-effect="non-scaling-stroke"  transform=" translate(-6.56, 6.06)" d="M -0.640625 -3.671875 C -0.785156 -3.671875 -0.9375 -3.695312 -1.09375 -3.75 C -1.257812 -3.8125 -1.382812 -3.914062 -1.46875 -4.0625 C -1.5 -4.144531 -1.515625 -4.316406 -1.515625 -4.578125 C -1.515625 -4.835938 -1.316406 -5.257812 -0.921875 -5.84375 C -0.535156 -6.4375 0.21875 -7.265625 1.34375 -8.328125 C 1.507812 -8.503906 1.679688 -8.488281 1.859375 -8.28125 C 1.941406 -8.226562 1.984375 -8.144531 1.984375 -8.03125 C 1.984375 -7.914062 1.941406 -7.828125 1.859375 -7.765625 C 0.765625 -6.703125 0.046875 -5.910156 -0.296875 -5.390625 C -0.640625 -4.878906 -0.800781 -4.5625 -0.78125 -4.4375 C -0.71875 -4.382812 -0.488281 -4.398438 -0.09375 -4.484375 C 0.0507812 -4.546875 0.445312 -4.726562 1.09375 -5.03125 C 1.75 -5.332031 2.863281 -5.957031 4.4375 -6.90625 C 4.644531 -6.988281 4.820312 -6.957031 4.96875 -6.8125 C 5.082031 -6.695312 5.082031 -6.523438 4.96875 -6.296875 C 4.414062 -5.691406 4.066406 -5.242188 3.921875 -4.953125 C 3.785156 -4.671875 3.726562 -4.5 3.75 -4.4375 L 3.890625 -4.4375 C 3.941406 -4.4375 4.015625 -4.4375 4.109375 -4.4375 C 4.210938 -4.4375 4.320312 -4.453125 4.4375 -4.484375 C 4.695312 -4.546875 5.113281 -4.726562 5.6875 -5.03125 C 6.269531 -5.332031 6.921875 -5.691406 7.640625 -6.109375 C 8.359375 -6.523438 9.039062 -6.925781 9.6875 -7.3125 C 10.332031 -7.695312 10.84375 -8.007812 11.21875 -8.25 C 11.363281 -8.363281 11.507812 -8.347656 11.65625 -8.203125 C 11.800781 -8.109375 11.84375 -7.960938 11.78125 -7.765625 C 11.78125 -7.765625 11.757812 -7.632812 11.71875 -7.375 C 11.675781 -7.113281 11.738281 -6.898438 11.90625 -6.734375 C 12.195312 -6.390625 12.929688 -6.375 14.109375 -6.6875 C 14.367188 -6.75 14.53125 -6.664062 14.59375 -6.4375 C 14.707031 -6.175781 14.617188 -6.015625 14.328125 -5.953125 C 12.859375 -5.578125 11.863281 -5.664062 11.34375 -6.21875 C 11.207031 -6.363281 11.109375 -6.519531 11.046875 -6.6875 C 10.992188 -6.863281 10.96875 -7.019531 10.96875 -7.15625 C 10.5625 -6.925781 10.0625 -6.628906 9.46875 -6.265625 C 8.882812 -5.910156 8.265625 -5.550781 7.609375 -5.1875 C 6.960938 -4.832031 6.375 -4.519531 5.84375 -4.25 C 5.3125 -3.976562 4.90625 -3.8125 4.625 -3.75 C 4.476562 -3.726562 4.222656 -3.703125 3.859375 -3.671875 C 3.503906 -3.640625 3.238281 -3.769531 3.0625 -4.0625 C 3.007812 -4.175781 2.972656 -4.328125 2.953125 -4.515625 C 2.941406 -4.703125 3.035156 -4.96875 3.234375 -5.3125 C 1.617188 -4.382812 0.570312 -3.863281 0.09375 -3.75 C -0.0820312 -3.695312 -0.328125 -3.671875 -0.640625 -3.671875 Z M -0.640625 -3.671875" stroke-linecap="round" />
</g>
		<g transform="matrix(1.33 0 0 1.33 -36.25 77.05)"  >
<path style="stroke: none; stroke-width: 1; stroke-dasharray: none; stroke-linecap: butt; stroke-dashoffset: 0; stroke-linejoin: miter; stroke-miterlimit: 4; fill: rgb(83,89,49); fill-rule: nonzero; opacity: 1;" vector-effect="non-scaling-stroke"  transform=" translate(-5.27, 6.05)" d="M 1.03125 -3.75 C 0.457031 -3.8125 -0.0195312 -3.921875 -0.40625 -4.078125 C -0.800781 -4.234375 -1.066406 -4.457031 -1.203125 -4.75 C -1.234375 -4.894531 -1.25 -5.066406 -1.25 -5.265625 C -1.25 -5.460938 -1.132812 -5.707031 -0.90625 -6 C -0.707031 -6.257812 -0.425781 -6.503906 -0.0625 -6.734375 C 0.289062 -6.960938 0.6875 -7.175781 1.125 -7.375 L 1.203125 -7.421875 C 1.785156 -7.679688 2.367188 -7.890625 2.953125 -8.046875 C 3.546875 -8.203125 4 -8.296875 4.3125 -8.328125 C 4.488281 -8.359375 4.773438 -8.363281 5.171875 -8.34375 C 5.578125 -8.332031 5.820312 -8.171875 5.90625 -7.859375 C 5.96875 -7.742188 5.960938 -7.582031 5.890625 -7.375 C 5.816406 -7.175781 5.578125 -6.960938 5.171875 -6.734375 C 4.679688 -6.472656 4.039062 -6.332031 3.25 -6.3125 C 2.46875 -6.300781 1.816406 -6.398438 1.296875 -6.609375 C 0.515625 -6.253906 -0.015625 -5.894531 -0.296875 -5.53125 C -0.503906 -5.320312 -0.5625 -5.160156 -0.46875 -5.046875 C -0.414062 -4.929688 -0.257812 -4.820312 0 -4.71875 C 0.257812 -4.625 0.546875 -4.5625 0.859375 -4.53125 C 1.410156 -4.5 2.628906 -4.632812 4.515625 -4.9375 C 6.398438 -5.238281 8.648438 -5.820312 11.265625 -6.6875 C 11.523438 -6.75 11.679688 -6.664062 11.734375 -6.4375 C 11.847656 -6.175781 11.773438 -6.015625 11.515625 -5.953125 C 8.984375 -5.117188 6.78125 -4.539062 4.90625 -4.21875 C 3.039062 -3.90625 1.75 -3.75 1.03125 -3.75 Z M 2.5 -7.125 C 2.90625 -7.09375 3.320312 -7.097656 3.75 -7.140625 C 4.1875 -7.179688 4.535156 -7.273438 4.796875 -7.421875 L 5.046875 -7.59375 L 4.40625 -7.59375 C 3.945312 -7.539062 3.3125 -7.382812 2.5 -7.125 Z M 2.5 -7.125" stroke-linecap="round" />
</g>
		<g transform="matrix(1.33 0 0 1.33 -18.13 72.57)"  >
<path style="stroke: none; stroke-width: 1; stroke-dasharray: none; stroke-linecap: butt; stroke-dashoffset: 0; stroke-linejoin: miter; stroke-miterlimit: 4; fill: rgb(83,89,49); fill-rule: nonzero; opacity: 1;" vector-effect="non-scaling-stroke"  transform=" translate(-7.39, 9.41)" d="M 16.953125 -15.0625 C 17.046875 -15 17.101562 -14.894531 17.125 -14.75 C 17.15625 -14.613281 17.085938 -14.429688 16.921875 -14.203125 C 16.597656 -13.765625 16.0625 -13.257812 15.3125 -12.6875 C 14.570312 -12.113281 13.710938 -11.515625 12.734375 -10.890625 C 11.753906 -10.273438 10.765625 -9.679688 9.765625 -9.109375 C 8.773438 -8.535156 7.851562 -8.015625 7 -7.546875 C 6.15625 -7.085938 5.488281 -6.742188 5 -6.515625 C 4.164062 -5.710938 3.707031 -5.1875 3.625 -4.9375 C 3.539062 -4.695312 3.5 -4.578125 3.5 -4.578125 C 3.519531 -4.546875 3.59375 -4.515625 3.71875 -4.484375 C 3.851562 -4.453125 4.082031 -4.453125 4.40625 -4.484375 C 4.78125 -4.546875 5.390625 -4.679688 6.234375 -4.890625 C 7.085938 -5.109375 8.007812 -5.382812 9 -5.71875 C 9.988281 -6.050781 10.875 -6.359375 11.65625 -6.640625 C 11.820312 -6.703125 11.941406 -6.710938 12.015625 -6.671875 C 12.085938 -6.628906 12.140625 -6.5625 12.171875 -6.46875 C 12.253906 -6.207031 12.179688 -6.035156 11.953125 -5.953125 C 11.117188 -5.640625 10.195312 -5.316406 9.1875 -4.984375 C 8.1875 -4.648438 7.242188 -4.367188 6.359375 -4.140625 C 5.484375 -3.910156 4.84375 -3.769531 4.4375 -3.71875 L 4.0625 -3.671875 C 3.394531 -3.671875 2.976562 -3.867188 2.8125 -4.265625 C 2.78125 -4.378906 2.753906 -4.492188 2.734375 -4.609375 C 2.722656 -4.734375 2.757812 -4.894531 2.84375 -5.09375 C 1.976562 -4.632812 1.15625 -4.296875 0.375 -4.078125 C -0.394531 -3.859375 -1.007812 -3.75 -1.46875 -3.75 C -1.78125 -3.75 -1.992188 -3.8125 -2.109375 -3.9375 C -2.222656 -4.070312 -2.296875 -4.171875 -2.328125 -4.234375 C -2.503906 -4.742188 -1.941406 -5.476562 -0.640625 -6.4375 C 0.765625 -7.46875 1.910156 -7.992188 2.796875 -8.015625 C 3.691406 -8.046875 4.285156 -7.890625 4.578125 -7.546875 C 4.609375 -7.523438 4.632812 -7.488281 4.65625 -7.4375 C 4.6875 -7.394531 4.703125 -7.363281 4.703125 -7.34375 L 5.046875 -7.59375 C 5.992188 -8.488281 7.085938 -9.398438 8.328125 -10.328125 C 9.566406 -11.265625 10.847656 -12.148438 12.171875 -12.984375 C 13.578125 -13.878906 14.601562 -14.46875 15.25 -14.75 C 15.90625 -15.039062 16.335938 -15.175781 16.546875 -15.15625 C 16.765625 -15.144531 16.898438 -15.113281 16.953125 -15.0625 Z M 7.375 -8.59375 C 8.414062 -9.164062 9.503906 -9.789062 10.640625 -10.46875 C 11.773438 -11.144531 12.820312 -11.820312 13.78125 -12.5 C 14.75 -13.175781 15.476562 -13.753906 15.96875 -14.234375 C 15.445312 -14.035156 14.71875 -13.65625 13.78125 -13.09375 C 12.851562 -12.53125 11.828125 -11.859375 10.703125 -11.078125 C 9.578125 -10.304688 8.46875 -9.476562 7.375 -8.59375 Z M -1.546875 -4.484375 L -1.46875 -4.484375 C -0.945312 -4.484375 -0.175781 -4.660156 0.84375 -5.015625 C 1.863281 -5.378906 2.847656 -5.910156 3.796875 -6.609375 L 3.921875 -6.734375 C 4.015625 -6.847656 4.050781 -6.925781 4.03125 -6.96875 C 4.019531 -7.007812 4.015625 -7.046875 4.015625 -7.078125 C 3.835938 -7.273438 3.375 -7.320312 2.625 -7.21875 C 1.882812 -7.125 0.953125 -6.660156 -0.171875 -5.828125 C -0.691406 -5.453125 -1.046875 -5.15625 -1.234375 -4.9375 C -1.421875 -4.726562 -1.523438 -4.578125 -1.546875 -4.484375 Z M -1.546875 -4.484375" stroke-linecap="round" />
</g>
		<g transform="matrix(1.33 0 0 1.33 -2.19 72.57)"  >
<path style="stroke: none; stroke-width: 1; stroke-dasharray: none; stroke-linecap: butt; stroke-dashoffset: 0; stroke-linejoin: miter; stroke-miterlimit: 4; fill: rgb(83,89,49); fill-rule: nonzero; opacity: 1;" vector-effect="non-scaling-stroke"  transform=" translate(-7.39, 9.41)" d="M 16.953125 -15.0625 C 17.046875 -15 17.101562 -14.894531 17.125 -14.75 C 17.15625 -14.613281 17.085938 -14.429688 16.921875 -14.203125 C 16.597656 -13.765625 16.0625 -13.257812 15.3125 -12.6875 C 14.570312 -12.113281 13.710938 -11.515625 12.734375 -10.890625 C 11.753906 -10.273438 10.765625 -9.679688 9.765625 -9.109375 C 8.773438 -8.535156 7.851562 -8.015625 7 -7.546875 C 6.15625 -7.085938 5.488281 -6.742188 5 -6.515625 C 4.164062 -5.710938 3.707031 -5.1875 3.625 -4.9375 C 3.539062 -4.695312 3.5 -4.578125 3.5 -4.578125 C 3.519531 -4.546875 3.59375 -4.515625 3.71875 -4.484375 C 3.851562 -4.453125 4.082031 -4.453125 4.40625 -4.484375 C 4.78125 -4.546875 5.390625 -4.679688 6.234375 -4.890625 C 7.085938 -5.109375 8.007812 -5.382812 9 -5.71875 C 9.988281 -6.050781 10.875 -6.359375 11.65625 -6.640625 C 11.820312 -6.703125 11.941406 -6.710938 12.015625 -6.671875 C 12.085938 -6.628906 12.140625 -6.5625 12.171875 -6.46875 C 12.253906 -6.207031 12.179688 -6.035156 11.953125 -5.953125 C 11.117188 -5.640625 10.195312 -5.316406 9.1875 -4.984375 C 8.1875 -4.648438 7.242188 -4.367188 6.359375 -4.140625 C 5.484375 -3.910156 4.84375 -3.769531 4.4375 -3.71875 L 4.0625 -3.671875 C 3.394531 -3.671875 2.976562 -3.867188 2.8125 -4.265625 C 2.78125 -4.378906 2.753906 -4.492188 2.734375 -4.609375 C 2.722656 -4.734375 2.757812 -4.894531 2.84375 -5.09375 C 1.976562 -4.632812 1.15625 -4.296875 0.375 -4.078125 C -0.394531 -3.859375 -1.007812 -3.75 -1.46875 -3.75 C -1.78125 -3.75 -1.992188 -3.8125 -2.109375 -3.9375 C -2.222656 -4.070312 -2.296875 -4.171875 -2.328125 -4.234375 C -2.503906 -4.742188 -1.941406 -5.476562 -0.640625 -6.4375 C 0.765625 -7.46875 1.910156 -7.992188 2.796875 -8.015625 C 3.691406 -8.046875 4.285156 -7.890625 4.578125 -7.546875 C 4.609375 -7.523438 4.632812 -7.488281 4.65625 -7.4375 C 4.6875 -7.394531 4.703125 -7.363281 4.703125 -7.34375 L 5.046875 -7.59375 C 5.992188 -8.488281 7.085938 -9.398438 8.328125 -10.328125 C 9.566406 -11.265625 10.847656 -12.148438 12.171875 -12.984375 C 13.578125 -13.878906 14.601562 -14.46875 15.25 -14.75 C 15.90625 -15.039062 16.335938 -15.175781 16.546875 -15.15625 C 16.765625 -15.144531 16.898438 -15.113281 16.953125 -15.0625 Z M 7.375 -8.59375 C 8.414062 -9.164062 9.503906 -9.789062 10.640625 -10.46875 C 11.773438 -11.144531 12.820312 -11.820312 13.78125 -12.5 C 14.75 -13.175781 15.476562 -13.753906 15.96875 -14.234375 C 15.445312 -14.035156 14.71875 -13.65625 13.78125 -13.09375 C 12.851562 -12.53125 11.828125 -11.859375 10.703125 -11.078125 C 9.578125 -10.304688 8.46875 -9.476562 7.375 -8.59375 Z M -1.546875 -4.484375 L -1.46875 -4.484375 C -0.945312 -4.484375 -0.175781 -4.660156 0.84375 -5.015625 C 1.863281 -5.378906 2.847656 -5.910156 3.796875 -6.609375 L 3.921875 -6.734375 C 4.015625 -6.847656 4.050781 -6.925781 4.03125 -6.96875 C 4.019531 -7.007812 4.015625 -7.046875 4.015625 -7.078125 C 3.835938 -7.273438 3.375 -7.320312 2.625 -7.21875 C 1.882812 -7.125 0.953125 -6.660156 -0.171875 -5.828125 C -0.691406 -5.453125 -1.046875 -5.15625 -1.234375 -4.9375 C -1.421875 -4.726562 -1.523438 -4.578125 -1.546875 -4.484375 Z M -1.546875 -4.484375" stroke-linecap="round" />
</g>
		<g transform="matrix(1.33 0 0 1.33 10.36 76.05)"  >
<path style="stroke: none; stroke-width: 1; stroke-dasharray: none; stroke-linecap: butt; stroke-dashoffset: 0; stroke-linejoin: miter; stroke-miterlimit: 4; fill: rgb(83,89,49); fill-rule: nonzero; opacity: 1;" vector-effect="non-scaling-stroke"  transform=" translate(-4.84, 6.8)" d="M 3.1875 -8.84375 C 3.070312 -8.84375 2.972656 -8.882812 2.890625 -8.96875 C 2.742188 -9.175781 2.757812 -9.363281 2.9375 -9.53125 L 3.15625 -9.703125 C 3.238281 -9.796875 3.335938 -9.828125 3.453125 -9.796875 C 3.566406 -9.765625 3.65625 -9.722656 3.71875 -9.671875 C 3.882812 -9.492188 3.867188 -9.304688 3.671875 -9.109375 L 3.453125 -8.9375 C 3.390625 -8.875 3.300781 -8.84375 3.1875 -8.84375 Z M 0.4375 -3.796875 C -0.113281 -3.796875 -0.507812 -3.878906 -0.75 -4.046875 C -1 -4.222656 -1.148438 -4.398438 -1.203125 -4.578125 C -1.429688 -5.148438 -1.203125 -5.738281 -0.515625 -6.34375 L -0.296875 -6.5625 C -0.0664062 -6.789062 0.101562 -6.953125 0.21875 -7.046875 C 0.332031 -7.148438 0.59375 -7.347656 1 -7.640625 L 1.25 -7.859375 C 1.445312 -7.992188 1.617188 -7.960938 1.765625 -7.765625 C 1.910156 -7.566406 1.894531 -7.394531 1.71875 -7.25 L 1.46875 -7.03125 C 1.09375 -6.75 0.847656 -6.5625 0.734375 -6.46875 C 0.617188 -6.382812 0.445312 -6.226562 0.21875 -6 L 0 -5.78125 C -0.457031 -5.375 -0.613281 -5.070312 -0.46875 -4.875 C -0.414062 -4.675781 -0.113281 -4.578125 0.4375 -4.578125 L 0.46875 -4.578125 C 0.957031 -4.578125 1.617188 -4.640625 2.453125 -4.765625 C 3.296875 -4.898438 4.203125 -5.066406 5.171875 -5.265625 C 6.148438 -5.460938 7.109375 -5.679688 8.046875 -5.921875 C 8.984375 -6.171875 9.78125 -6.425781 10.4375 -6.6875 C 10.695312 -6.75 10.859375 -6.664062 10.921875 -6.4375 C 11.035156 -6.226562 10.960938 -6.066406 10.703125 -5.953125 C 10.015625 -5.691406 9.191406 -5.4375 8.234375 -5.1875 C 7.285156 -4.945312 6.304688 -4.71875 5.296875 -4.5 C 4.296875 -4.289062 3.363281 -4.117188 2.5 -3.984375 C 1.632812 -3.859375 0.957031 -3.796875 0.46875 -3.796875 Z M 0.4375 -3.796875" stroke-linecap="round" />
</g>
		<g transform="matrix(1.33 0 0 1.33 25.18 77.08)"  >
<path style="stroke: none; stroke-width: 1; stroke-dasharray: none; stroke-linecap: butt; stroke-dashoffset: 0; stroke-linejoin: miter; stroke-miterlimit: 4; fill: rgb(83,89,49); fill-rule: nonzero; opacity: 1;" vector-effect="non-scaling-stroke"  transform=" translate(-5.3, 6.03)" d="M -2.421875 -3.671875 C -2.535156 -3.671875 -2.632812 -3.710938 -2.71875 -3.796875 C -2.894531 -3.972656 -2.878906 -4.144531 -2.671875 -4.3125 L 1.34375 -8.25 C 1.507812 -8.414062 1.679688 -8.414062 1.859375 -8.25 C 2.054688 -8.070312 2.054688 -7.882812 1.859375 -7.6875 L 0.5625 -6.4375 C 1.539062 -7.007812 2.53125 -7.507812 3.53125 -7.9375 C 4.539062 -8.375 5.320312 -8.488281 5.875 -8.28125 C 6.070312 -8.195312 6.195312 -8.097656 6.25 -7.984375 C 6.3125 -7.867188 6.359375 -7.769531 6.390625 -7.6875 C 6.441406 -7.394531 6.34375 -7.082031 6.09375 -6.75 C 5.851562 -6.414062 5.601562 -6.125 5.34375 -5.875 C 4.570312 -5.15625 4.15625 -4.707031 4.09375 -4.53125 L 4.4375 -4.578125 C 4.644531 -4.609375 5.15625 -4.703125 5.96875 -4.859375 C 6.789062 -5.015625 7.8125 -5.25 9.03125 -5.5625 C 10.257812 -5.882812 11.566406 -6.257812 12.953125 -6.6875 C 13.179688 -6.75 13.335938 -6.664062 13.421875 -6.4375 C 13.484375 -6.175781 13.394531 -6.015625 13.15625 -5.953125 C 11.75 -5.523438 10.425781 -5.148438 9.1875 -4.828125 C 7.957031 -4.515625 6.921875 -4.269531 6.078125 -4.09375 C 5.242188 -3.925781 4.726562 -3.828125 4.53125 -3.796875 C 4.382812 -3.765625 4.175781 -3.765625 3.90625 -3.796875 C 3.632812 -3.828125 3.441406 -3.957031 3.328125 -4.1875 C 3.210938 -4.445312 3.28125 -4.75 3.53125 -5.09375 C 3.789062 -5.4375 4.222656 -5.882812 4.828125 -6.4375 C 5.410156 -7.007812 5.671875 -7.378906 5.609375 -7.546875 C 5.316406 -7.660156 4.863281 -7.609375 4.25 -7.390625 C 3.632812 -7.179688 2.941406 -6.867188 2.171875 -6.453125 C 1.410156 -6.035156 0.644531 -5.582031 -0.125 -5.09375 C -0.90625 -4.601562 -1.597656 -4.144531 -2.203125 -3.71875 C -2.253906 -3.6875 -2.328125 -3.671875 -2.421875 -3.671875 Z M -2.421875 -3.671875" stroke-linecap="round" />
</g>
		<g transform="matrix(1.33 0 0 1.33 35.08 82.97)"  >
<path style="stroke: none; stroke-width: 1; stroke-dasharray: none; stroke-linecap: butt; stroke-dashoffset: 0; stroke-linejoin: miter; stroke-miterlimit: 4; fill: rgb(83,89,49); fill-rule: nonzero; opacity: 1;" vector-effect="non-scaling-stroke"  transform=" translate(0.39, 1.61)" d="M 10.53125 -6.46875 C 10.644531 -6.238281 10.585938 -6.066406 10.359375 -5.953125 C 9.296875 -5.523438 8.070312 -5.019531 6.6875 -4.4375 C 5.3125 -3.863281 3.859375 -3.289062 2.328125 -2.71875 L -1.203125 -1.375 L -2.03125 -0.734375 C -4.007812 0.785156 -5.582031 1.9375 -6.75 2.71875 C -7.914062 3.5 -8.785156 4.023438 -9.359375 4.296875 C -9.941406 4.566406 -10.359375 4.703125 -10.609375 4.703125 C -10.722656 4.703125 -10.816406 4.679688 -10.890625 4.640625 C -10.960938 4.597656 -11.03125 4.5625 -11.09375 4.53125 C -11.351562 4.332031 -11.429688 4.054688 -11.328125 3.703125 C -11.222656 3.359375 -11.160156 3.128906 -11.140625 3.015625 C -10.816406 2.328125 -9.820312 1.578125 -8.15625 0.765625 C -6.488281 -0.0351562 -4.300781 -0.96875 -1.59375 -2.03125 C -1.195312 -2.34375 -0.785156 -2.671875 -0.359375 -3.015625 C 0.0546875 -3.359375 0.476562 -3.707031 0.90625 -4.0625 C 0.476562 -3.882812 0.101562 -3.796875 -0.21875 -3.796875 C -0.5625 -3.796875 -0.796875 -3.867188 -0.921875 -4.015625 C -1.054688 -4.160156 -1.148438 -4.289062 -1.203125 -4.40625 C -1.378906 -4.894531 -1.351562 -5.351562 -1.125 -5.78125 C -0.832031 -6.269531 -0.34375 -6.65625 0.34375 -6.9375 C 1.03125 -7.226562 1.726562 -7.445312 2.4375 -7.59375 C 3.144531 -7.738281 3.671875 -7.828125 4.015625 -7.859375 L 4.265625 -7.890625 C 4.472656 -7.953125 4.65625 -7.9375 4.8125 -7.84375 C 4.96875 -7.757812 5.085938 -7.648438 5.171875 -7.515625 C 5.285156 -7.515625 5.40625 -7.457031 5.53125 -7.34375 C 5.695312 -7.164062 5.679688 -6.988281 5.484375 -6.8125 L 5 -6.390625 C 4.945312 -6.359375 4.890625 -6.3125 4.828125 -6.25 C 4.828125 -6.25 4.800781 -6.222656 4.75 -6.171875 L 0.78125 -2.984375 L 2.078125 -3.453125 C 3.597656 -4.023438 5.039062 -4.59375 6.40625 -5.15625 C 7.769531 -5.71875 8.972656 -6.210938 10.015625 -6.640625 C 10.242188 -6.734375 10.414062 -6.675781 10.53125 -6.46875 Z M -0.515625 -4.65625 C -0.484375 -4.632812 -0.453125 -4.609375 -0.421875 -4.578125 C -0.398438 -4.546875 -0.332031 -4.53125 -0.21875 -4.53125 C 0.15625 -4.53125 0.648438 -4.679688 1.265625 -4.984375 C 1.890625 -5.285156 2.488281 -5.628906 3.0625 -6.015625 C 3.632812 -6.410156 4.066406 -6.707031 4.359375 -6.90625 C 4.472656 -6.988281 4.53125 -7.0625 4.53125 -7.125 C 4.5 -7.125 4.484375 -7.128906 4.484375 -7.140625 C 4.484375 -7.148438 4.46875 -7.15625 4.4375 -7.15625 L 4.140625 -7.125 C 2.523438 -6.894531 1.394531 -6.613281 0.75 -6.28125 C 0.101562 -5.945312 -0.289062 -5.648438 -0.4375 -5.390625 C -0.570312 -5.222656 -0.597656 -4.976562 -0.515625 -4.65625 Z M -10.609375 3.890625 C -10.242188 3.910156 -9.441406 3.523438 -8.203125 2.734375 C -6.960938 1.941406 -5.507812 0.914062 -3.84375 -0.34375 C -5.507812 0.34375 -6.96875 1.007812 -8.21875 1.65625 C -9.46875 2.300781 -10.195312 2.859375 -10.40625 3.328125 C -10.539062 3.609375 -10.609375 3.796875 -10.609375 3.890625 Z M -10.609375 3.890625" stroke-linecap="round" />
</g>
		<g transform="matrix(1.33 0 0 1.33 55.2 77.14)"  >
<path style="stroke: none; stroke-width: 1; stroke-dasharray: none; stroke-linecap: butt; stroke-dashoffset: 0; stroke-linejoin: miter; stroke-miterlimit: 4; fill: rgb(83,89,49); fill-rule: nonzero; opacity: 1;" vector-effect="non-scaling-stroke"  transform=" translate(-4.39, 5.98)" d="M -0.46875 -3.1875 C -0.675781 -3.1875 -0.863281 -3.21875 -1.03125 -3.28125 C -1.207031 -3.363281 -1.296875 -3.507812 -1.296875 -3.71875 C -1.296875 -3.945312 -1.15625 -4.109375 -0.875 -4.203125 C -0.601562 -4.304688 0.132812 -4.457031 1.34375 -4.65625 L 1.765625 -4.75 L 1.859375 -4.796875 C 1.765625 -4.847656 1.644531 -4.890625 1.5 -4.921875 C 1.363281 -4.953125 1.238281 -4.976562 1.125 -5 C 0.800781 -5.113281 0.503906 -5.222656 0.234375 -5.328125 C -0.0351562 -5.429688 -0.210938 -5.597656 -0.296875 -5.828125 C -0.390625 -6.023438 -0.378906 -6.273438 -0.265625 -6.578125 C -0.148438 -6.878906 0.207031 -7.21875 0.8125 -7.59375 C 1.300781 -7.90625 1.890625 -8.175781 2.578125 -8.40625 C 3.273438 -8.644531 3.941406 -8.769531 4.578125 -8.78125 C 5.210938 -8.789062 5.671875 -8.625 5.953125 -8.28125 C 6.128906 -8.113281 6.128906 -7.941406 5.953125 -7.765625 C 5.753906 -7.597656 5.566406 -7.597656 5.390625 -7.765625 C 5.242188 -7.941406 4.925781 -8.015625 4.4375 -7.984375 C 3.957031 -7.953125 3.421875 -7.847656 2.828125 -7.671875 C 2.234375 -7.503906 1.691406 -7.265625 1.203125 -6.953125 C 0.546875 -6.578125 0.289062 -6.285156 0.4375 -6.078125 C 0.488281 -6.054688 0.613281 -6.007812 0.8125 -5.9375 C 1.019531 -5.863281 1.195312 -5.796875 1.34375 -5.734375 C 1.6875 -5.648438 1.992188 -5.550781 2.265625 -5.4375 C 2.535156 -5.320312 2.6875 -5.132812 2.71875 -4.875 C 3.175781 -4.988281 3.640625 -5.085938 4.109375 -5.171875 C 4.585938 -5.265625 5.03125 -5.367188 5.4375 -5.484375 C 6.53125 -5.796875 7.484375 -6.070312 8.296875 -6.3125 C 9.117188 -6.5625 9.546875 -6.6875 9.578125 -6.6875 C 9.804688 -6.75 9.96875 -6.664062 10.0625 -6.4375 C 10.113281 -6.175781 10.023438 -6.015625 9.796875 -5.953125 C 9.765625 -5.953125 9.335938 -5.828125 8.515625 -5.578125 C 7.703125 -5.335938 6.734375 -5.0625 5.609375 -4.75 C 5.066406 -4.601562 4.484375 -4.460938 3.859375 -4.328125 C 3.242188 -4.203125 2.648438 -4.097656 2.078125 -4.015625 C 1.671875 -3.785156 1.226562 -3.585938 0.75 -3.421875 C 0.28125 -3.265625 -0.125 -3.1875 -0.46875 -3.1875 Z M -0.46875 -3.1875" stroke-linecap="round" />
</g>
</g>
</g>
</svg>