<?xml version="1.0" encoding="UTF-8" standalone="no" ?>
<!DOCTYPE svg PUBLIC "-//W3C//DTD SVG 1.1//EN" "http://www.w3.org/Graphics/SVG/1.1/DTD/svg11.dtd">
<svg xmlns="http://www.w3.org/2000/svg" xmlns:xlink="http://www.w3.org/1999/xlink" version="1.1" width="1080" height="1080" viewBox="0 0 1080 1080" xml:space="preserve">
<desc>Created with Fabric.js 5.2.4</desc>
<defs>
</defs>
<g transform="matrix(1 0 0 1 540 540)" id="30847e0d-edb4-4170-afd1-cef0ff2e9703"  >
<rect style="stroke: none; stroke-width: 1; stroke-dasharray: none; stroke-linecap: butt; stroke-dashoffset: 0; stroke-linejoin: miter; stroke-miterlimit: 4; fill: rgb(255,255,255); fill-rule: nonzero; opacity: 1; visibility: hidden;" vector-effect="non-scaling-stroke"  x="-540" y="-540" rx="0" ry="0" width="1080" height="1080" />
</g>
<g transform="matrix(1 0 0 1 540 540)" id="7cd47956-caa4-44ab-b0ea-51b28b621e5c"  >
</g>
<g transform="matrix(6.29 0 0 6.29 367.8 610.16)"  >
<g style=""   >
		<g transform="matrix(1.33 0 0 1.33 55.93 8.18)" clip-path="url(#CLIPPATH_3)"  >
<clipPath id="CLIPPATH_3" >
	<path transform="matrix(1 0 0 1 3.04 3.87) translate(-130.86, -159.25)" id="9" clip-path="url(#undefined)" d="M 170.734375 134.121094 L 98.058594 193.101562 L 90.984375 184.378906 L 163.65625 125.402344 Z M 170.734375 134.121094" stroke-linecap="round" />
</clipPath>
<path style="stroke: none; stroke-width: 1; stroke-dasharray: none; stroke-linecap: butt; stroke-dashoffset: 0; stroke-linejoin: miter; stroke-miterlimit: 4; fill: rgb(0,0,0); fill-rule: nonzero; opacity: 1;" vector-effect="non-scaling-stroke"  transform=" translate(-127.82, -155.38)" d="M 164.503906 126.636719 C 161.003906 133.839844 156.59375 140.613281 151.496094 146.816406 L 149.554688 149.121094 L 147.546875 151.363281 L 145.476562 153.554688 L 143.351562 155.691406 C 140.476562 158.496094 137.441406 161.140625 134.285156 163.625 C 131.117188 166.097656 127.824219 168.410156 124.414062 170.535156 L 121.832031 172.089844 L 119.210938 173.574219 L 116.550781 174.988281 L 113.851562 176.324219 C 106.609375 179.789062 98.976562 182.453125 91.144531 184.128906 C 98.882812 182.066406 106.386719 179.226562 113.523438 175.65625 L 116.179688 174.28125 L 118.804688 172.84375 L 121.390625 171.339844 L 123.933594 169.769531 C 127.300781 167.640625 130.566406 165.339844 133.699219 162.875 C 136.839844 160.425781 139.851562 157.804688 142.726562 155.042969 L 144.859375 152.949219 L 146.9375 150.796875 L 148.960938 148.59375 L 150.929688 146.34375 C 156.101562 140.265625 160.652344 133.65625 164.503906 126.636719 Z M 164.503906 126.636719" stroke-linecap="round" />
</g>
		<g transform="matrix(1.33 0 0 1.33 14.67 -9.82)"  >
<path style="stroke: none; stroke-width: 1; stroke-dasharray: none; stroke-linecap: butt; stroke-dashoffset: 0; stroke-linejoin: miter; stroke-miterlimit: 4; fill: rgb(0,0,0); fill-rule: nonzero; opacity: 1;" vector-effect="non-scaling-stroke"  transform=" translate(-57.37, 79.36)" d="M 41.96875 -38.46875 C 42.207031 -36.625 41.894531 -35.671875 41.03125 -35.609375 C 40.175781 -35.546875 39.441406 -36.863281 38.828125 -39.5625 C 38.585938 -40.664062 38.34375 -42.015625 38.09375 -43.609375 C 37.851562 -45.210938 37.789062 -46.992188 37.90625 -48.953125 C 38.03125 -50.304688 38.125 -51.472656 38.1875 -52.453125 C 38.25 -53.429688 38.34375 -53.984375 38.46875 -54.109375 C 38.707031 -54.597656 38.457031 -54.90625 37.71875 -55.03125 C 36.988281 -55.15625 35.945312 -55.09375 34.59375 -54.84375 C 33.488281 -54.71875 32.171875 -54.59375 30.640625 -54.46875 C 29.109375 -54.351562 27.175781 -54.234375 24.84375 -54.109375 C 23.125 -54.109375 21.925781 -54.195312 21.25 -54.375 C 20.582031 -54.5625 20.125 -55.085938 19.875 -55.953125 C 19.382812 -57.179688 19.753906 -58.375 20.984375 -59.53125 C 22.210938 -60.695312 23.65625 -61.738281 25.3125 -62.65625 C 26.96875 -63.582031 28.160156 -64.226562 28.890625 -64.59375 C 31.097656 -65.582031 33.335938 -66.410156 35.609375 -67.078125 C 37.878906 -67.753906 40.242188 -68.460938 42.703125 -69.203125 C 43.191406 -69.328125 44.109375 -70.800781 45.453125 -73.625 C 46.804688 -76.5625 48.25 -79.441406 49.78125 -82.265625 C 51.3125 -85.085938 52.816406 -87.847656 54.296875 -90.546875 C 55.273438 -92.640625 56.039062 -94.050781 56.59375 -94.78125 C 57.144531 -95.519531 57.601562 -95.953125 57.96875 -96.078125 C 58.707031 -96.441406 59.320312 -96.378906 59.8125 -95.890625 C 60.0625 -95.640625 60.1875 -95.300781 60.1875 -94.875 C 60.1875 -94.445312 59.941406 -93.554688 59.453125 -92.203125 C 58.222656 -88.765625 56.71875 -85.453125 54.9375 -82.265625 C 53.15625 -79.078125 51.59375 -75.765625 50.25 -72.328125 L 49.515625 -70.3125 C 54.910156 -71.289062 59.476562 -71.898438 63.21875 -72.140625 C 66.957031 -72.390625 70.546875 -72.207031 73.984375 -71.59375 C 74.722656 -71.46875 75.457031 -71.710938 76.1875 -72.328125 C 76.925781 -72.941406 77.910156 -73.675781 79.140625 -74.53125 C 82.453125 -76.863281 85.703125 -79.503906 88.890625 -82.453125 C 92.085938 -85.398438 94.664062 -88.742188 96.625 -92.484375 C 98.582031 -96.222656 99.257812 -100.363281 98.65625 -104.90625 C 98.039062 -109.6875 96.257812 -113.304688 93.3125 -115.765625 C 90.363281 -118.222656 86.863281 -119.910156 82.8125 -120.828125 C 78.769531 -121.742188 74.722656 -122.140625 70.671875 -122.015625 C 63.554688 -121.898438 56.410156 -120.828125 49.234375 -118.796875 C 42.054688 -116.773438 35.273438 -113.800781 28.890625 -109.875 C 27.054688 -108.644531 24.972656 -107.078125 22.640625 -105.171875 C 20.304688 -103.273438 18.3125 -101.160156 16.65625 -98.828125 C 15 -96.503906 14.109375 -94.050781 13.984375 -91.46875 C 13.984375 -91.226562 14.164062 -90.675781 14.53125 -89.8125 C 14.90625 -88.957031 15.335938 -88.53125 15.828125 -88.53125 C 16.929688 -88.53125 17.390625 -88.253906 17.203125 -87.703125 C 17.023438 -87.148438 16.382812 -86.929688 15.28125 -87.046875 C 14.175781 -87.296875 13.5 -87.941406 13.25 -88.984375 C 13.007812 -90.023438 12.890625 -90.851562 12.890625 -91.46875 C 12.890625 -92.332031 13.222656 -93.679688 13.890625 -95.515625 C 14.566406 -97.359375 15.335938 -98.832031 16.203125 -99.9375 C 18.035156 -102.757812 21.253906 -105.765625 25.859375 -108.953125 C 30.460938 -112.140625 35.398438 -114.835938 40.671875 -117.046875 C 44.960938 -118.765625 49.441406 -120.113281 54.109375 -121.09375 C 58.773438 -122.082031 63.128906 -122.695312 67.171875 -122.9375 C 70.484375 -123.1875 73.976562 -123.15625 77.65625 -122.84375 C 81.34375 -122.539062 84.84375 -121.835938 88.15625 -120.734375 C 91.46875 -119.628906 94.320312 -117.878906 96.71875 -115.484375 C 99.113281 -113.097656 100.675781 -109.878906 101.40625 -105.828125 C 102.269531 -101.648438 101.898438 -97.691406 100.296875 -93.953125 C 98.703125 -90.210938 96.460938 -86.835938 93.578125 -83.828125 C 90.703125 -80.828125 87.671875 -78.222656 84.484375 -76.015625 C 81.171875 -73.804688 79.113281 -72.332031 78.3125 -71.59375 C 77.507812 -70.851562 77.359375 -70.484375 77.859375 -70.484375 C 78.460938 -70.484375 79.253906 -70.328125 80.234375 -70.015625 C 81.222656 -69.710938 81.835938 -69.257812 82.078125 -68.65625 C 82.328125 -68.28125 82.484375 -67.816406 82.546875 -67.265625 C 82.609375 -66.710938 81.960938 -66.4375 80.609375 -66.4375 C 80.242188 -66.4375 80 -66.554688 79.875 -66.796875 C 79.75 -67.046875 79.441406 -67.414062 78.953125 -67.90625 C 77.609375 -69.132812 76.320312 -69.628906 75.09375 -69.390625 C 74.226562 -69.265625 73.1875 -68.832031 71.96875 -68.09375 C 69.632812 -66.863281 66.84375 -65.515625 63.59375 -64.046875 C 60.34375 -62.578125 57.117188 -61.257812 53.921875 -60.09375 C 50.734375 -58.925781 47.851562 -58.035156 45.28125 -57.421875 C 44.539062 -57.054688 43.617188 -54.722656 42.515625 -50.421875 C 42.148438 -48.953125 41.9375 -47.050781 41.875 -44.71875 C 41.8125 -42.382812 41.84375 -40.300781 41.96875 -38.46875 Z M 45.28125 -59.265625 C 45.394531 -59.140625 46.34375 -59.289062 48.125 -59.71875 C 49.90625 -60.15625 51.222656 -60.492188 52.078125 -60.734375 C 54.285156 -61.597656 56.984375 -62.734375 60.171875 -64.140625 C 63.367188 -65.546875 66.191406 -66.863281 68.640625 -68.09375 C 71.097656 -69.320312 72.328125 -70.0625 72.328125 -70.3125 C 71.472656 -70.550781 70.492188 -70.703125 69.390625 -70.765625 C 68.285156 -70.828125 66.6875 -70.796875 64.59375 -70.671875 C 61.894531 -70.546875 59.257812 -70.269531 56.6875 -69.84375 C 54.113281 -69.414062 51.472656 -69.019531 48.765625 -68.65625 L 46.9375 -64.046875 Z M 29.625 -55.765625 C 33.3125 -56.015625 35.859375 -56.351562 37.265625 -56.78125 C 38.679688 -57.207031 39.445312 -57.789062 39.5625 -58.53125 C 39.5625 -59.257812 40.054688 -60.726562 41.046875 -62.9375 L 42.703125 -67.359375 C 42.941406 -67.847656 42.753906 -68 42.140625 -67.8125 C 41.523438 -67.632812 41.097656 -67.546875 40.859375 -67.546875 C 39.992188 -67.421875 38.519531 -66.988281 36.4375 -66.25 C 34.351562 -65.519531 32.144531 -64.601562 29.8125 -63.5 C 27.476562 -62.394531 25.484375 -61.195312 23.828125 -59.90625 C 22.171875 -58.613281 21.34375 -57.414062 21.34375 -56.3125 C 21.34375 -55.332031 24.101562 -55.148438 29.625 -55.765625 Z M 29.625 -55.765625" stroke-linecap="round" />
</g>
</g>
</g>
</svg>